<svg width="285" height="197" viewBox="0 0 285 197" fill="none" xmlns="http://www.w3.org/2000/svg">
<g clip-path="url(#clip0_62_60)">
<path d="M107.411 38.4621C105.248 30.5767 122.693 23.8148 127.273 30.1649C127.91 29.2621 130.264 28.7138 131.344 28.9907C132.424 29.2676 133.333 29.96 134.219 30.6302C135.438 31.5663 136.7 32.5356 137.448 33.8815C138.202 35.2219 138.318 37.0497 137.304 38.2129C136.501 39.1379 134.13 39.7361 132.923 39.9798C132.081 40.1515 131.372 40.29 130.763 40.3896C130.22 39.5976 129.943 38.6172 130.043 37.659C129.223 38.2018 128.669 39.1323 128.581 40.1183C128.564 40.3232 135.388 65.4308 135.388 65.4308C134.684 65.8462 133.815 66.2339 132.812 66.5884C131.112 64.0239 129.716 60.9997 128.797 57.837C128.586 59.7922 128.619 61.9136 128.874 64.0682C129.007 65.2147 129.206 66.3668 129.461 67.5189C121.352 69.2692 109.156 68.6932 103.85 61.2489C103.849 61.2182 103.848 61.1873 103.847 61.1565C103.809 59.7635 101.908 59.4174 101.4 60.7147C101.271 61.0432 101.153 61.3275 101.047 61.5536C99.5016 56.0258 101.501 49.6284 107.411 38.4621Z" fill="#2F2E41"/>
<path d="M217.634 100.994C215.715 103.269 212.315 103.558 210.039 101.64C209.819 101.454 209.614 101.251 209.426 101.032L183.818 109.143L179.833 102.611L210.319 93.2004C212.71 91.4358 216.08 91.9441 217.844 94.3359C219.321 96.3372 219.234 99.0896 217.634 100.994Z" fill="#FFB6B6"/>
<path d="M126.944 80.7251C126.944 80.7251 138.285 67.9697 143.225 73.388C148.164 78.8064 163.576 102.55 163.576 102.55L199.552 94.9598L203.031 104.454L162.182 117.691C159.111 118.687 155.746 117.655 153.761 115.109L126.944 80.7251Z" fill="#6C63FF"/>
<path d="M151.574 197H95.3268L95.2756 196.561L95.2427 196.268L94.7596 192.17L94.0753 186.333L93.8119 184.09C93.7936 183.976 93.7753 183.867 93.7606 183.753C93.5301 182.293 93.3984 180.826 93.3508 179.362C93.2813 177.349 93.3727 175.34 93.5886 173.357V173.346C93.7057 172.274 93.8558 171.213 94.0424 170.162C94.2766 168.812 94.5584 167.484 94.884 166.185C95.2573 164.677 95.6818 163.21 96.1465 161.793C96.6808 160.136 97.2663 158.548 97.87 157.047C97.9359 156.886 98.0018 156.725 98.064 156.568L98.0677 156.564C101.251 148.803 104.867 143.5 104.867 143.5H145.844C145.844 143.5 147.739 151.818 148.68 158.687C148.83 159.774 148.954 160.82 149.046 161.793C149.21 163.59 149.258 165.134 149.115 166.185C149.027 166.836 148.866 167.297 148.618 167.509C146.363 169.434 148.943 173.518 148.943 173.518C148.943 173.518 150.875 176.471 149.192 178.132C148.859 178.462 148.669 178.886 148.577 179.362C148.431 180.149 148.559 181.063 148.76 181.872C148.962 182.685 149.24 183.391 149.393 183.753C149.463 183.914 149.507 184.006 149.507 184.006L149.792 186.263L150.07 188.437L150.542 192.17L150.685 192.828L151.421 196.268L151.483 196.561L151.574 197Z" fill="#2F2E41"/>
<path d="M123.163 63.2744L105.965 64.8061L102.795 74.6701L99.3406 75.1702C93.4377 76.0249 89.9246 82.2159 92.2181 87.7217L95.2576 95.0181C95.2576 95.0181 90.7931 108.798 96.2762 114.588L98.6096 140.09L93.3461 156.901L154.871 158.887L144.391 137.8L144.081 124.707C144.081 124.707 150.778 101.041 144.569 93.5139L142.146 72.1033L129.525 70.2102L123.163 63.2744Z" fill="#6C63FF"/>
<path d="M134.806 50.6194C136.578 42.9756 131.819 35.3425 124.175 33.5703C116.531 31.7981 108.898 36.5579 107.126 44.2017C105.353 51.8455 110.113 59.4786 117.757 61.2509C125.401 63.0231 133.034 58.2632 134.806 50.6194Z" fill="#FFB6B6"/>
<path d="M99.6567 39.5696C97.4938 31.6841 114.938 24.9222 119.519 31.2723C120.156 30.3695 122.51 29.8212 123.59 30.0981C124.67 30.3751 125.578 31.0674 126.465 31.7376C127.683 32.6737 128.946 33.643 129.694 34.9889C130.447 36.3293 130.563 38.1572 129.55 39.3203C128.747 40.2453 126.376 40.8435 125.169 41.0872C124.327 41.2589 123.618 41.3974 123.008 41.4971C122.466 40.705 122.189 39.7246 122.288 38.7664C121.469 39.3092 120.915 40.2397 120.826 41.2257C120.81 41.4306 127.633 66.5382 127.633 66.5382C126.93 66.9536 126.06 67.3413 125.058 67.6958C123.357 65.1313 121.962 62.1071 121.042 58.9444C120.832 60.8997 120.865 63.021 121.12 65.1756C121.253 66.3222 121.452 67.4743 121.707 68.6263C113.598 70.3766 101.401 69.8006 96.0952 62.3564C96.0942 62.3256 96.0934 62.2948 96.0925 62.2639C96.0546 60.871 94.154 60.5248 93.6455 61.8222C93.5168 62.1506 93.3983 62.4349 93.2925 62.661C91.7472 57.1332 93.7467 50.7359 99.6567 39.5696Z" fill="#2F2E41"/>
<path d="M221.105 196.561H30.0883L0.447754 196.927L208.32 184.517C215.255 184.103 221.105 189.614 221.105 196.561Z" fill="#3F3D56"/>
<path d="M267.886 196.268V197H0.389404V0H1.12127V196.268H267.886Z" fill="#3F3D56"/>
<path d="M239.264 45.5657H190.576C189.453 45.5657 188.54 44.6554 188.54 43.5368C188.54 42.4181 189.453 41.5083 190.576 41.5083H239.264C240.387 41.5083 241.3 42.4181 241.3 43.5368C241.3 44.6554 240.387 45.5657 239.264 45.5657Z" fill="#6C63FF"/>
<path d="M214.902 52.1088C214.72 51.6603 214.091 51.6604 213.909 52.1089C212.64 55.2384 210.833 58.743 208.867 61.4212C208.552 61.85 208.986 62.423 209.486 62.2421L213.7 60.7176V86.8028H215.111V60.7176L219.326 62.2423C219.826 62.4232 220.26 61.8502 219.945 61.4214C217.979 58.7431 216.172 55.2384 214.902 52.1088Z" fill="#3F3D56"/>
<path d="M283.119 60.4771H253.101C252.409 60.4771 251.846 59.9159 251.846 59.2262C251.846 58.5365 252.409 57.9756 253.101 57.9756H283.119C283.811 57.9756 284.374 58.5365 284.374 59.2262C284.374 59.9159 283.811 60.4771 283.119 60.4771Z" fill="#F2F2F2"/>
<path d="M268.099 64.5111C267.986 64.2346 267.599 64.2346 267.487 64.5111C266.704 66.4405 265.59 68.6012 264.378 70.2524C264.184 70.5168 264.452 70.8701 264.76 70.7585L267.358 69.8186V85.9008H268.228V69.8186L270.826 70.7586C271.135 70.8702 271.402 70.5169 271.208 70.2525C269.996 68.6013 268.882 66.4405 268.099 64.5111Z" fill="#F2F2F2"/>
<path d="M268.115 101.418C271.717 101.418 274.638 98.4976 274.638 94.8952C274.638 91.2928 271.717 88.3726 268.115 88.3726C264.513 88.3726 261.592 91.2928 261.592 94.8952C261.592 98.4976 264.513 101.418 268.115 101.418Z" fill="#F2F2F2"/>
<path d="M186.878 23.5176H156.861C156.169 23.5176 155.605 22.9564 155.605 22.2667C155.605 21.577 156.169 21.0161 156.861 21.0161H186.878C187.571 21.0161 188.134 21.577 188.134 22.2667C188.134 22.9564 187.571 23.5176 186.878 23.5176Z" fill="#F2F2F2"/>
<path d="M171.859 27.5516C171.746 27.2751 171.359 27.2751 171.247 27.5517C170.464 29.4811 169.35 31.6417 168.138 33.293C167.944 33.5573 168.212 33.9106 168.52 33.799L171.118 32.8592V48.9414H171.988V32.8591L174.586 33.7991C174.895 33.9107 175.162 33.5574 174.968 33.2931C173.756 31.6418 172.642 29.4811 171.859 27.5516Z" fill="#F2F2F2"/>
<path d="M171.875 64.4594C175.477 64.4594 178.397 61.5391 178.397 57.9367C178.397 54.3343 175.477 51.4141 171.875 51.4141C168.272 51.4141 165.352 54.3343 165.352 57.9367C165.352 61.5391 168.272 64.4594 171.875 64.4594Z" fill="#F2F2F2"/>
<path d="M96.2521 184.323C97.7913 181.776 96.9738 178.463 94.4262 176.924C94.1794 176.775 93.921 176.645 93.6536 176.538L93.1134 149.681L85.6482 148.004L86.523 179.897C85.6197 182.729 87.1829 185.757 90.0146 186.66C92.384 187.416 94.9627 186.45 96.2521 184.323Z" fill="#FFB6B6"/>
<path d="M101.445 78.3642C101.445 78.3642 92.2971 76.1686 89.3697 82.3895C86.4422 88.6103 86.1931 115.681 86.1931 115.681L84.6125 170.579L96.2168 170.068L105.471 102.516L101.445 78.3642Z" fill="#6C63FF"/>
<path d="M97.339 192.424C97.5449 192.682 97.8578 192.832 98.188 192.83H157.594C158.197 192.829 158.686 192.339 158.685 191.736C158.685 191.661 158.677 191.586 158.662 191.513L157.74 187.132C157.662 186.769 157.406 186.471 157.059 186.338C156.936 186.29 156.804 186.265 156.671 186.265H99.1065C98.9738 186.265 98.8422 186.29 98.7186 186.338C98.3718 186.471 98.1156 186.769 98.038 187.132L97.1158 191.513C97.0494 191.834 97.1314 192.169 97.339 192.424Z" fill="#CCCCCC"/>
<path d="M74.5964 94.3683V162.893C74.5979 164.711 76.0715 166.185 77.8898 166.186H179.436C181.255 166.185 182.728 164.711 182.73 162.893V94.3683C182.725 92.5518 181.253 91.0809 179.436 91.0786H77.8898C76.0733 91.0809 74.6008 92.5518 74.5964 94.3683Z" fill="#E6E6E6"/>
<path d="M141.361 151.533C141.241 151.492 141.113 151.474 140.984 151.474H117.228C116.529 151.474 115.958 152.041 115.958 152.74V190.27H142.251V152.74C142.251 152.188 141.892 151.697 141.361 151.533ZM131.832 169.99C131.825 171.542 130.563 172.793 129.011 172.786C127.471 172.775 126.226 171.531 126.219 169.99V165.636C126.234 164.088 127.503 162.844 129.051 162.858C130.581 162.873 131.818 164.11 131.832 165.636V169.99Z" fill="#CCCCCC"/>
</g>
<defs>
<clipPath id="clip0_62_60">
<rect width="283.985" height="197" fill="white" transform="translate(0.389404)"/>
</clipPath>
</defs>
</svg>
