<svg width="253" height="196" viewBox="0 0 253 196" fill="none" xmlns="http://www.w3.org/2000/svg">
<g clip-path="url(#clip0_62_128)">
<path d="M4.23189 180.518C5.88224 186.243 10.7011 190.251 15.7277 193.655C16.4296 194.131 17.1317 194.595 17.834 195.049C17.8387 195.051 17.8436 195.055 17.8484 195.057C17.8822 195.079 17.9161 195.101 17.9476 195.123C18.0925 195.216 18.2375 195.31 18.3813 195.402L18.3023 195.438C18.3023 195.438 18.2248 195.479 18.3096 195.444C18.3348 195.434 18.3613 195.424 18.3865 195.413C21.3066 194.236 24.2787 192.971 26.5166 190.765C28.838 188.474 30.1947 184.88 28.9376 181.87C28.7724 181.476 28.5637 181.102 28.3154 180.754C28.2134 180.608 28.1036 180.468 27.9893 180.331C27.2959 179.485 26.3896 178.838 25.3636 178.458C24.3376 178.079 23.2289 177.979 22.1516 178.169C21.0743 178.36 20.0671 178.834 19.2338 179.543C18.4004 180.252 17.7709 181.17 17.41 182.203C17.0407 178.764 19.8759 175.884 22.6044 173.759C25.3341 171.635 28.4358 169.322 28.9635 165.902C29.2582 164 28.5967 162.156 27.3915 160.676C27.3542 160.631 27.317 160.586 27.2785 160.543C25.8116 158.819 23.7482 157.712 21.5007 157.443C17.3151 157.008 13.2494 159.223 10.2086 162.134C5.31447 166.816 2.35576 174.008 4.23189 180.518Z" fill="#F1F1F1"/>
<path d="M12.0993 173.029C11.296 174.279 10.6792 175.639 10.2685 177.067C9.92115 178.343 9.76656 179.664 9.80984 180.986C9.92188 183.706 10.6855 186.36 12.0365 188.723C13.0541 190.516 14.2943 192.173 15.7276 193.655C16.4295 194.131 17.1315 194.595 17.8338 195.049C17.8386 195.051 17.8435 195.056 17.8483 195.058C17.8821 195.079 17.916 195.101 17.9474 195.123C18.0924 195.216 18.2374 195.31 18.3811 195.402C18.3811 195.402 18.2247 195.479 18.3095 195.444C18.3347 195.434 18.3612 195.424 18.3864 195.414C18.1246 193.268 18.381 191.091 19.1341 189.064C19.8871 187.038 21.1148 185.222 22.7144 183.768C24.3178 182.336 26.2369 181.303 28.3153 180.754C28.2133 180.608 28.1035 180.468 27.9891 180.331C27.1864 180.556 26.4052 180.852 25.6546 181.215C22.9713 182.503 20.7742 184.621 19.3885 187.256C18.145 189.648 17.6099 192.345 17.8458 195.031C17.7258 194.922 17.6057 194.811 17.4892 194.701C15.2702 192.632 13.2993 190.258 11.9654 187.517C10.8082 185.196 10.2395 182.626 10.3093 180.034C10.4181 177.207 11.5444 174.589 13.1751 172.309C14.9623 169.878 17.0737 167.702 19.4505 165.842C21.8458 163.923 24.4669 162.305 27.2553 161.023C27.3182 160.994 27.3674 160.942 27.3927 160.877C27.4181 160.813 27.4176 160.741 27.3914 160.676C27.3728 160.619 27.3322 160.571 27.2784 160.543C27.2507 160.531 27.2207 160.525 27.1906 160.527C27.1605 160.528 27.1311 160.536 27.1045 160.55C26.7602 160.709 26.4183 160.869 26.0792 161.037C23.2545 162.433 20.6141 164.175 18.2188 166.222C15.9051 168.195 13.7268 170.448 12.0993 173.029Z" fill="white"/>
<path d="M78.1801 191.096H82.5656L84.6517 174.182L78.1794 174.182L78.1801 191.096Z" fill="#FFB7B7"/>
<path d="M77.0615 189.664L85.6977 189.664H85.6981C87.1577 189.664 88.5575 190.244 89.5897 191.276C90.6218 192.308 91.2017 193.708 91.2018 195.168V195.347L77.0618 195.347L77.0615 189.664Z" fill="#2F2E41"/>
<path d="M54.4367 191.096H58.8222L60.9083 174.182L54.436 174.182L54.4367 191.096Z" fill="#FFB7B7"/>
<path d="M53.3179 189.664L61.9541 189.664H61.9545C63.4141 189.664 64.8139 190.244 65.846 191.276C66.8781 192.308 67.458 193.708 67.4581 195.168V195.347L53.3181 195.347L53.3179 189.664Z" fill="#2F2E41"/>
<path d="M52.6504 114.435V159.095L53.781 187.926H63.1086L66.2182 133.656L72.4366 155.986L76.3938 187.361L87.7001 186.796L80.0685 114.435H52.6504Z" fill="#2F2E41"/>
<path d="M63.4936 74.2967C67.2402 74.2967 70.2774 71.2595 70.2774 67.5129C70.2774 63.7662 67.2402 60.729 63.4936 60.729C59.747 60.729 56.7097 63.7662 56.7097 67.5129C56.7097 71.2595 59.747 74.2967 63.4936 74.2967Z" fill="#FFB8B8"/>
<path d="M60.6748 76.0645L58.8687 77.9715L57.1726 116.131L77.2417 115.566L72.4364 82.2117L68.1966 78.1486L66.0452 76.0645H60.6748Z" fill="#6C63FF"/>
<path d="M57.4553 80.2327L58.9786 77.7603L59.4339 83.0593C59.4339 83.0593 63.1085 94.931 62.8258 105.389C62.5431 115.848 64.2391 140.439 61.9778 140.722C59.7165 141.005 50.1061 141.57 50.1061 139.591C50.1061 137.613 49.5408 85.0379 49.5408 85.0379L57.4553 80.2327Z" fill="#2F2E41"/>
<path d="M67.741 77.7603L71.5882 80.798L80.068 83.9073C80.068 83.9073 80.068 120.088 81.764 128.568C83.4599 137.047 86.5692 137.895 82.612 138.178C78.6547 138.461 78.9374 137.047 78.9374 137.047C78.9374 137.047 67.3483 100.867 67.9136 91.8218C68.4789 82.7766 67.1757 77.7603 67.741 77.7603Z" fill="#2F2E41"/>
<path d="M57.0755 69.6355C57.0755 69.6355 57.6519 68.6233 57.5179 65.2418C57.3839 61.8604 62.5331 63.7729 66.8357 63.4503C71.1384 63.1277 70.2276 69.0957 70.2276 69.0957C70.2276 69.0957 70.538 68.741 71.2026 65.8606C71.8672 62.9803 70.3582 60.1099 70.3582 60.1099C69.9138 57.0832 67.5187 58.0533 67.5187 58.0533C68.6722 58.5023 68.4506 59.4624 68.4506 59.4624C67.4743 57.7506 65.0792 58.7207 65.0792 58.7207C61.8849 56.7161 58.6474 59.3559 58.6474 59.3559C54.7885 60.2317 57.0516 63.3005 57.0516 63.3005C53.1708 65.2617 57.0755 69.6355 57.0755 69.6355Z" fill="#2F2E41"/>
<path d="M50.1155 135.504C50.4031 135.2 50.6205 134.837 50.7524 134.44C50.8844 134.043 50.9277 133.622 50.8793 133.206C50.831 132.791 50.6921 132.391 50.4724 132.035C50.2528 131.679 49.9577 131.375 49.6081 131.145L50.8301 124.721L47.1073 123.026L45.509 132.123C45.1621 132.736 45.052 133.455 45.1997 134.143C45.3475 134.832 45.7427 135.443 46.3105 135.859C46.8783 136.276 47.5793 136.47 48.2806 136.405C48.9818 136.339 49.6347 136.019 50.1155 135.504Z" fill="#FFB7B7"/>
<path d="M50.9542 85.0372L50.2037 84.6348C50.2037 84.6348 46.149 86.1678 46.4317 87.2985C46.7143 88.4291 44.1704 128.002 45.0184 129.415C45.8664 130.828 52.6502 129.697 52.6502 129.697L50.9542 85.0372Z" fill="#2F2E41"/>
<path d="M83.2218 132.84C82.895 132.578 82.6295 132.249 82.4438 131.874C82.2582 131.499 82.157 131.088 82.1475 130.67C82.1379 130.251 82.2201 129.836 82.3884 129.453C82.5566 129.07 82.8068 128.729 83.1213 128.453L81.0222 122.259L84.4747 120.066L87.3162 128.854C87.7447 129.413 87.9531 130.11 87.9021 130.812C87.8511 131.514 87.5441 132.174 87.0395 132.665C86.5348 133.157 85.8674 133.446 85.1638 133.478C84.4602 133.51 83.7692 133.283 83.2218 132.84Z" fill="#FFB7B7"/>
<path d="M79.9088 127.44C79.9088 127.44 86.7838 127.621 87.4281 126.104C88.0724 124.587 80.0776 85.7472 80.2011 84.5883C80.3246 83.4294 76.0968 82.4722 76.0968 82.4722L75.4092 82.9745L79.9088 127.44Z" fill="#2F2E41"/>
<path d="M125.134 196H0.67359C0.586953 196 0.503864 195.965 0.442602 195.904C0.38134 195.843 0.346924 195.759 0.346924 195.673C0.346924 195.586 0.38134 195.503 0.442602 195.442C0.503864 195.381 0.586953 195.346 0.67359 195.346H125.134C125.22 195.346 125.303 195.381 125.365 195.442C125.426 195.503 125.46 195.586 125.46 195.673C125.46 195.759 125.426 195.843 125.365 195.904C125.303 195.965 125.22 196 125.134 196Z" fill="#090909"/>
<path d="M252.893 100.613H138.018V29.0957H252.893V100.613ZM140.69 97.9402H250.22V31.7685H140.69V97.9402Z" fill="#E5E5E5"/>
<path d="M251.556 30.4321H139.354V99.2766H251.556V30.4321Z" fill="white"/>
<path d="M251.556 47.8804V43.6534H235.991V30.4321H231.764V43.6534H204.054V30.4321H199.827V43.6534H157.086V30.4321H152.859V43.6534H139.354V47.8804H152.859V64.3189H139.354V68.546H152.859V86.1587H139.354V90.3857H175.639V99.2766H179.865V90.3857H199.827V99.2766H204.054V90.3857H251.556V86.1586H204.054V68.546H251.556V64.3189H235.991V47.8804L251.556 47.8804ZM199.827 47.8804V53.0468H157.086V47.8804H199.827ZM157.086 57.2738H199.827V64.3189H157.086V57.2738ZM157.086 86.1586V68.546H175.639V86.1586L157.086 86.1586ZM199.827 86.1586H179.865V68.546H199.827V86.1586ZM231.764 64.3189H204.054V47.8804H231.764V64.3189Z" fill="#E6E6E6"/>
<path d="M222.333 20.2688C222.333 31.463 202.064 56.4002 202.064 56.4002C202.064 56.4002 181.795 31.463 181.795 20.2688C181.795 14.8932 183.93 9.73774 187.732 5.9366C191.533 2.13546 196.688 0 202.064 0C207.439 0 212.595 2.13546 216.396 5.9366C220.197 9.73774 222.333 14.8932 222.333 20.2688Z" fill="#6C63FF"/>
<path d="M211.33 19.3873C211.33 21.2199 210.786 23.0114 209.768 24.5351C208.75 26.0589 207.303 27.2465 205.61 27.9478C203.917 28.6491 202.054 28.8326 200.256 28.475C198.459 28.1175 196.808 27.235 195.512 25.9392C194.216 24.6434 193.334 22.9924 192.976 21.195C192.619 19.3976 192.802 17.5346 193.503 15.8415C194.205 14.1484 195.392 12.7013 196.916 11.6831C198.44 10.665 200.231 10.1216 202.064 10.1216C203.281 10.121 204.486 10.3603 205.61 10.8258C206.735 11.2912 207.756 11.9737 208.617 12.8342C209.477 13.6947 210.16 14.7164 210.625 15.8408C211.091 16.9653 211.33 18.1704 211.33 19.3873Z" fill="white"/>
<path d="M202.064 71.0286C205.081 71.0286 207.527 68.5824 207.527 65.5648C207.527 62.5473 205.081 60.1011 202.064 60.1011C199.046 60.1011 196.6 62.5473 196.6 65.5648C196.6 68.5824 199.046 71.0286 202.064 71.0286Z" fill="#6C63FF"/>
</g>
<defs>
<clipPath id="clip0_62_128">
<rect width="252.546" height="196" fill="white" transform="translate(0.346924)"/>
</clipPath>
</defs>
</svg>
