<svg width="430" height="196" viewBox="0 0 430 196" fill="none" xmlns="http://www.w3.org/2000/svg">
<g clip-path="url(#clip0_40_39)">
<path d="M394.781 110.597C405.413 110.597 414.032 101.978 414.032 91.3463C414.032 80.7142 405.413 72.0952 394.781 72.0952C384.149 72.0952 375.53 80.7142 375.53 91.3463C375.53 101.978 384.149 110.597 394.781 110.597Z" fill="#F2F2F2"/>
<path d="M394.781 96.4119C397.579 96.4119 399.847 94.1438 399.847 91.3458C399.847 88.5479 397.579 86.2798 394.781 86.2798C391.983 86.2798 389.715 88.5479 389.715 91.3458C389.715 94.1438 391.983 96.4119 394.781 96.4119Z" fill="#E6E6E6"/>
<path d="M393.856 91.4539C395.99 93.1949 396.64 95.9387 396.243 98.5881C395.755 101.494 394.247 104.131 391.99 106.026C389.453 108.281 386.357 109.805 383.371 111.366C380.626 112.766 377.989 114.367 375.48 116.156C365.875 123.137 358.618 133.078 354.464 144.171C350.318 155.245 349.206 167.815 352.356 179.293C353.915 184.971 357.069 191.098 362.944 193.235C367.626 194.938 374.02 193.841 376.404 189.015C378.966 183.83 375.392 178.002 370.789 175.429C364.822 172.092 357.695 174.53 352.328 177.907C346.419 181.625 341.669 186.961 335.501 190.293C332.724 191.84 329.634 192.742 326.461 192.93C323.547 193.045 320.638 192.595 317.895 191.607C312.202 189.533 307.302 185.729 303.881 180.729C299.963 175.034 298.209 168.052 297.889 161.212C297.174 145.91 303.219 131.593 308.069 117.402C310.675 110.012 312.628 102.408 313.904 94.676C315.118 86.9052 315.55 79.0324 315.194 71.1754C314.873 64.228 314.188 56.9631 311.121 50.6179C308.425 45.0385 303.497 40.472 297.267 39.3207C294.459 38.7696 291.549 39.1038 288.939 40.2774C288.05 40.6828 288.822 41.9931 289.706 41.5897C295.219 39.0746 301.736 41.5218 305.808 45.5827C310.563 50.3248 312.309 57.3277 313.085 63.7895C314.827 79.1032 313.454 94.6111 309.048 109.38C304.82 123.744 298.168 137.508 296.633 152.556C295.933 159.423 296.293 166.522 298.488 173.107C300.371 178.972 303.902 184.172 308.66 188.085C313.139 191.706 318.65 194.174 324.451 194.448C330.963 194.757 336.674 191.854 341.726 187.992C347.137 183.856 352.116 178.752 358.671 176.433C361.659 175.375 365.062 174.882 368.131 175.9C370.763 176.799 372.995 178.594 374.439 180.972C375.772 183.188 376.263 185.958 375.047 188.339C373.904 190.577 371.672 191.871 369.256 192.314C366.698 192.767 364.062 192.319 361.797 191.047C359.15 189.535 357.214 186.999 355.857 184.318C353.152 178.974 352.243 172.612 352.105 166.68C351.984 160.886 352.726 155.106 354.308 149.53C357.454 138.251 363.805 128.127 372.591 120.385C374.804 118.457 377.172 116.714 379.67 115.173C382.396 113.493 385.305 112.151 388.083 110.566C390.817 109.006 393.512 107.142 395.395 104.576C396.999 102.376 397.866 99.7245 397.871 97.0017C397.899 95.7493 397.65 94.5061 397.142 93.3612C396.634 92.2163 395.878 91.198 394.93 90.3793C394.179 89.766 393.097 90.8351 393.856 91.4539Z" fill="#CCCCCC"/>
<path d="M214.136 180.002C220.867 184.353 228.654 186.794 236.664 187.064C236.521 187.403 236.361 187.735 236.183 188.057C235.251 189.778 233.933 191.261 232.333 192.388C230.438 193.722 228.214 194.509 225.902 194.665C223.591 194.821 221.281 194.338 219.225 193.271C217.169 192.204 215.445 190.592 214.242 188.612C213.039 186.633 212.403 184.36 212.403 182.044V180.002H214.136Z" fill="#3F3D56"/>
<path d="M261.387 180.6V182.044C261.388 184.855 260.452 187.586 258.728 189.806C257.004 192.026 254.589 193.608 251.865 194.302C249.141 194.996 246.264 194.763 243.687 193.64C241.11 192.516 238.982 190.566 237.637 188.098C237.452 187.768 237.284 187.428 237.135 187.08C237.505 187.09 237.87 187.095 238.24 187.095C246.407 187.104 254.417 184.857 261.387 180.6Z" fill="#3F3D56"/>
<path d="M278.429 27.9188C278.049 27.863 277.664 27.8276 277.279 27.8022C281.654 37.8852 281.957 49.27 278.125 59.5715C278.51 59.5259 278.89 59.4651 279.27 59.3942C282.98 58.6753 286.315 56.6632 288.68 53.716C291.046 50.7688 292.289 47.0778 292.188 43.3001C292.087 39.5223 290.649 35.903 288.129 33.0863C285.61 30.2697 282.172 28.4385 278.429 27.9188Z" fill="#3F3D56"/>
<path d="M199.201 27.8022C198.816 27.8276 198.431 27.863 198.051 27.9188C194.308 28.4385 190.87 30.2697 188.351 33.0863C185.831 35.903 184.393 39.5223 184.292 43.3001C184.191 47.0778 185.434 50.7688 187.8 53.716C190.165 56.6632 193.5 58.6753 197.21 59.3942C197.59 59.4651 197.97 59.5259 198.355 59.5715C194.523 49.27 194.826 37.8852 199.201 27.8022Z" fill="#3F3D56"/>
<path d="M278.429 27.919C274.255 17.9489 266.525 9.8862 256.739 5.29716C246.953 0.708124 235.811 -0.07953 225.477 3.08722C215.143 6.25397 206.355 13.149 200.82 22.4328C195.286 31.7166 193.4 42.7263 195.528 53.3229C197.657 63.9196 203.649 73.3465 212.34 79.7725C221.031 86.1984 231.8 89.1644 242.555 88.0943C253.31 87.0241 263.284 81.9943 270.538 73.9819C277.792 65.9695 281.809 55.5467 281.808 44.7383C281.806 38.9635 280.657 33.2466 278.429 27.919ZM278.125 59.5718C274.419 69.5336 267.119 77.7476 257.661 82.5969C248.202 87.4462 237.272 88.5797 227.02 85.7743C216.768 82.9688 207.937 76.4276 202.266 67.4381C196.595 58.4487 194.494 47.662 196.377 37.2013C198.26 26.7405 203.99 17.3634 212.44 10.9154C220.889 4.4675 231.446 1.41582 242.033 2.36103C252.62 3.30624 262.469 8.17988 269.643 16.0227C276.817 23.8656 280.795 34.1095 280.795 44.7383C280.793 49.8022 279.889 54.8252 278.125 59.5718Z" fill="#3F3D56"/>
<path d="M260.531 34.8594H215.949C213.598 34.8594 211.343 35.7934 209.68 37.4561C208.018 39.1187 207.084 41.3737 207.084 43.725C207.084 46.0763 208.018 48.3313 209.68 49.9939C211.343 51.6565 213.598 52.5906 215.949 52.5906H260.531C262.882 52.5906 265.137 51.6565 266.799 49.9939C268.462 48.3313 269.396 46.0763 269.396 43.725C269.396 41.3737 268.462 39.1187 266.799 37.4561C265.137 35.7934 262.882 34.8594 260.531 34.8594Z" fill="#3F3D56"/>
<path d="M238.24 96.9185C226.33 96.9239 214.894 101.59 206.38 109.918C197.866 118.246 192.948 129.575 192.679 141.483C192.411 153.39 196.812 164.93 204.942 173.633C213.072 182.337 224.285 187.514 236.183 188.057C236.664 188.082 237.151 188.097 237.637 188.097C237.84 188.108 238.037 188.108 238.24 188.108C250.332 188.108 261.929 183.304 270.48 174.753C279.031 166.203 283.834 154.605 283.834 142.513C283.834 130.421 279.031 118.823 270.48 110.273C261.929 101.722 250.332 96.9185 238.24 96.9185ZM261.387 180.6C254.417 184.856 246.407 187.104 238.24 187.094C237.87 187.094 237.505 187.089 237.135 187.079C236.978 187.079 236.821 187.074 236.664 187.064C225.959 186.692 215.745 182.48 207.889 175.198C200.033 167.915 195.06 158.049 193.879 147.403C192.697 136.756 195.387 126.04 201.455 117.213C207.524 108.386 216.566 102.037 226.93 99.3272C237.293 96.6174 248.286 97.7274 257.898 102.454C267.511 107.181 275.101 115.21 279.283 125.072C283.464 134.934 283.957 145.971 280.671 156.167C277.385 166.362 270.54 175.035 261.387 180.6Z" fill="#3F3D56"/>
<path d="M270.24 131.284H250.314C248.925 131.284 247.594 130.732 246.612 129.75C245.63 128.768 245.079 127.437 245.079 126.049C245.079 124.66 245.63 123.329 246.612 122.347C247.594 121.365 248.925 120.813 250.314 120.813H270.24C271.629 120.813 272.96 121.365 273.942 122.347C274.924 123.329 275.475 124.66 275.475 126.049C275.475 127.437 274.924 128.768 273.942 129.75C272.96 130.732 271.629 131.284 270.24 131.284Z" fill="#3F3D56"/>
<path d="M251.642 128.705C253.11 128.705 254.299 127.516 254.299 126.048C254.299 124.581 253.11 123.392 251.642 123.392C250.175 123.392 248.986 124.581 248.986 126.048C248.986 127.516 250.175 128.705 251.642 128.705Z" fill="#F2F2F2"/>
<path d="M260.277 128.705C261.745 128.705 262.934 127.516 262.934 126.048C262.934 124.581 261.745 123.392 260.277 123.392C258.81 123.392 257.62 124.581 257.62 126.048C257.62 127.516 258.81 128.705 260.277 128.705Z" fill="#F2F2F2"/>
<path d="M268.912 128.705C270.379 128.705 271.569 127.516 271.569 126.048C271.569 124.581 270.379 123.392 268.912 123.392C267.445 123.392 266.255 124.581 266.255 126.048C266.255 127.516 267.445 128.705 268.912 128.705Z" fill="#6C63FF"/>
<path d="M83.4004 193.37C87.956 189.521 90.7233 183.44 89.9976 177.52C89.2719 171.6 84.7771 166.158 78.9468 164.9C73.1165 163.643 66.4703 167.123 64.6994 172.819C63.7248 161.838 62.6018 150.398 56.7639 141.047C51.4778 132.58 42.3222 126.521 32.3997 125.437C22.4771 124.354 12.0299 128.447 5.84152 136.279C-0.346825 144.111 -1.86202 155.497 2.47214 164.488C5.66496 171.112 11.5473 176.041 17.7105 180.052C37.3732 192.846 61.7648 197.169 84.9737 193.753L83.4004 193.37Z" fill="#F2F2F2"/>
<path d="M15.6537 128.674C23.8411 135.343 31.3521 142.801 38.0782 150.941C44.8054 159.073 50.7279 167.838 55.7626 177.114C58.5768 182.317 61.1048 187.67 63.3354 193.149C63.7902 194.263 61.9805 194.748 61.5308 193.646C57.5798 183.987 52.6917 174.739 46.9366 166.033C41.2094 157.359 34.6543 149.262 27.3634 141.854C23.2396 137.666 18.8887 133.707 14.3304 129.997C13.396 129.236 14.7271 127.919 15.6537 128.674Z" fill="white"/>
<path d="M81.8558 33.436C90.5293 33.436 97.5606 26.4047 97.5606 17.7312C97.5606 9.05764 90.5293 2.02637 81.8558 2.02637C73.1823 2.02637 66.151 9.05764 66.151 17.7312C66.151 26.4047 73.1823 33.436 81.8558 33.436Z" fill="#2F2E41"/>
<path d="M140.428 75.2369C140.127 75.6896 139.76 76.0947 139.34 76.4389C138.734 76.9385 138.029 77.3044 137.272 77.5126C136.515 77.7209 135.722 77.7667 134.946 77.6473C134.17 77.5278 133.428 77.2457 132.768 76.8194C132.109 76.3931 131.547 75.8323 131.119 75.1736C131.02 75.0202 130.929 74.8616 130.847 74.6985L106.099 72.3109C104.146 72.115 102.308 71.2945 100.858 69.9712C99.4083 68.648 98.4237 66.8924 98.0507 64.9652L96.646 57.5601L106.304 56.0576L108.037 61.9892L132.166 67.9161C132.353 67.7521 132.551 67.6014 132.759 67.4651C133.835 66.7667 135.12 66.4609 136.395 66.5994C137.671 66.738 138.859 67.3124 139.761 68.2257C140.662 69.139 141.22 70.3352 141.342 71.6126C141.464 72.8899 141.141 74.17 140.428 75.2369Z" fill="#FFB8B8"/>
<path d="M108.631 61.0938L97.8418 64.0082C97.2582 64.1652 96.6361 64.0842 96.112 63.7831C95.588 63.4819 95.2048 62.9852 95.0465 62.4019L91.2677 48.4136C90.8629 46.9152 91.0272 45.32 91.7289 43.9356C92.4306 42.5512 93.62 41.4756 95.0678 40.9162C96.5156 40.3569 98.1192 40.3534 99.5694 40.9063C101.02 41.4593 102.214 42.5297 102.922 43.911L110.065 57.8534C110.22 58.1557 110.305 58.4888 110.315 58.8283C110.325 59.1678 110.258 59.5052 110.121 59.8158C109.983 60.1264 109.778 60.4023 109.52 60.6234C109.262 60.8446 108.958 61.0053 108.631 61.0938Z" fill="#2F2E41"/>
<path d="M102.381 189.538H108.592L111.547 165.582L102.38 165.582L102.381 189.538Z" fill="#FFB8B8"/>
<path d="M120.57 195.305L101.05 195.306L101.05 187.764L113.028 187.763C115.028 187.763 116.947 188.558 118.361 189.972C119.775 191.386 120.57 193.304 120.57 195.305Z" fill="#2F2E41"/>
<path d="M47.0243 183.485L52.8351 185.679L64.0625 164.311L55.4866 161.073L47.0243 183.485Z" fill="#FFB8B8"/>
<path d="M62.0037 195.306L43.7421 188.411L46.4061 181.355L57.6121 185.586C59.4833 186.293 60.9973 187.714 61.8209 189.536C62.6444 191.359 62.7102 193.434 62.0037 195.306Z" fill="#2F2E41"/>
<path d="M102.185 183.974C101.703 183.973 101.234 183.82 100.845 183.537C100.456 183.253 100.167 182.854 100.019 182.396L84.1779 133.476C84.131 133.331 84.0415 133.203 83.9211 133.11C83.8008 133.016 83.6551 132.961 83.503 132.951C83.3508 132.942 83.1993 132.978 83.0681 133.056C82.9369 133.133 82.832 133.248 82.7671 133.386L60.8136 180.096C60.5758 180.601 60.1612 181.001 59.6481 181.221C59.1351 181.441 58.5593 181.465 58.0296 181.289L49.3834 178.407C48.8342 178.223 48.3756 177.837 48.1002 177.327C47.8248 176.818 47.7533 176.222 47.9002 175.662L61.3478 124.724C62.7549 119.329 63.7713 113.839 64.3891 108.297C65.3322 99.171 69.6107 90.7145 76.4042 84.5487C79.3705 81.831 81.2987 78.1659 81.8583 74.182L81.8945 73.9272L101.588 77.0366L114.063 178.828C114.127 179.373 113.994 179.923 113.688 180.377C113.381 180.832 112.921 181.162 112.392 181.306L102.78 183.894C102.586 183.947 102.386 183.974 102.185 183.974Z" fill="#2F2E41"/>
<path d="M88.0946 33.3611C94.9666 33.3611 100.537 27.7903 100.537 20.9184C100.537 14.0464 94.9666 8.47559 88.0946 8.47559C81.2227 8.47559 75.6519 14.0464 75.6519 20.9184C75.6519 27.7903 81.2227 33.3611 88.0946 33.3611Z" fill="#FFB8B8"/>
<path d="M100.364 79.2074C100.326 79.2074 100.287 79.2064 100.247 79.2044L80.7247 78.2283C80.1798 78.2037 79.662 77.9835 79.2664 77.608C78.8707 77.2325 78.6237 76.727 78.5706 76.1841L75.9036 50.181C75.7084 48.2767 75.9818 46.3536 76.7 44.5792C77.4182 42.8048 78.5594 41.233 80.0242 40.0007C81.489 38.7684 83.233 37.913 85.1041 37.509C86.9752 37.105 88.9167 37.1648 90.7595 37.683C92.2861 38.1012 93.709 38.833 94.9369 39.8319C108.67 51.1101 104.242 71.5445 102.558 77.5387C102.426 78.0188 102.139 78.4423 101.743 78.7438C101.347 79.0453 100.862 79.2082 100.364 79.2074Z" fill="#6C63FF"/>
<path d="M83.3805 96.6675C82.837 96.6676 82.2964 96.5866 81.7768 96.427C81.0253 96.1993 80.3303 95.8153 79.7375 95.3003C79.1447 94.7852 78.6675 94.1507 78.337 93.4383C78.0065 92.7259 77.8303 91.9518 77.8199 91.1666C77.8095 90.3813 77.9651 89.6027 78.2766 88.8819C78.3495 88.7144 78.4312 88.5509 78.5214 88.3921L66.8009 66.4655C65.8821 64.7309 65.5471 62.7462 65.8457 60.8061C66.1443 58.8659 67.0605 57.0738 68.4584 55.6957L73.8455 50.4243L80.4464 57.6331L76.468 62.3617L84.899 85.7334C85.139 85.7981 85.3742 85.8796 85.6029 85.9773C86.7806 86.4865 87.7466 87.3864 88.3378 88.5252C88.929 89.6639 89.1093 90.9718 88.8481 92.228C88.587 93.4843 87.9004 94.6119 86.9043 95.4207C85.9082 96.2295 84.6636 96.6699 83.3805 96.6675Z" fill="#FFB8B8"/>
<path d="M77.542 62.3599L69.1394 54.992C68.6854 54.593 68.4082 54.0302 68.3687 53.4271C68.3291 52.824 68.5304 52.2298 68.9284 51.7749L78.4814 40.8804C79.5047 39.7134 80.9238 38.9665 82.4651 38.7839C84.0063 38.6012 85.5607 38.9957 86.8284 39.8912C88.096 40.7868 88.9872 42.1199 89.3302 43.6336C89.6731 45.1473 89.4434 46.7344 88.6855 48.0889L81.0344 61.7593C80.8686 62.0557 80.6386 62.3113 80.3613 62.5074C80.0839 62.7035 79.7663 62.8352 79.4315 62.8927C79.0968 62.9503 78.7534 62.9324 78.4265 62.8402C78.0995 62.748 77.7974 62.5839 77.542 62.3599Z" fill="#2F2E41"/>
<path d="M80.0877 33.0052C81.2229 33.4077 82.6147 33.7626 83.5081 32.9277C84.3802 32.1127 84.2213 30.6222 83.7076 29.5241C83.1938 28.426 82.397 27.4489 82.1527 26.2537C81.8025 24.5408 82.7078 22.7613 84.0001 21.6445C85.2924 20.5278 86.9191 19.9412 88.5071 19.3767L97.2172 16.2804C99.3732 15.514 101.697 14.6137 102.903 12.5968C104.649 9.67843 103.053 5.5068 100.189 3.80387C97.3257 2.10095 93.7086 2.4182 90.6191 3.61561C88.9103 4.27788 87.2849 5.19048 85.5177 5.65668C82.0301 6.57676 78.0646 5.75135 74.9998 7.7178C72.3319 9.42958 71.0945 12.9224 71.1844 16.1904C71.2742 19.4585 72.4775 22.5709 73.7467 25.5597C74.5018 27.3379 75.3085 29.1365 76.5875 30.5508C77.8665 31.965 79.7147 32.9544 81.5609 32.6942L80.0877 33.0052Z" fill="#2F2E41"/>
<path d="M68.684 20.2642C74.2798 20.2642 78.8161 15.7279 78.8161 10.1321C78.8161 4.53631 74.2798 0 68.684 0C63.0882 0 58.5519 4.53631 58.5519 10.1321C58.5519 15.7279 63.0882 20.2642 68.684 20.2642Z" fill="#2F2E41"/>
<path d="M150.861 68.6198L150.682 68.5951L151.359 63.6695C151.463 62.9134 151.262 62.147 150.801 61.5388C150.34 60.9307 149.656 60.5306 148.9 60.4267L138.464 58.9922C137.708 58.8882 136.941 59.0889 136.333 59.55C135.725 60.0112 135.325 60.695 135.221 61.4511L131.506 88.4738C131.403 89.2299 131.603 89.9963 132.064 90.6044C132.525 91.2126 133.209 91.6126 133.965 91.7166L144.401 93.1511C145.157 93.255 145.924 93.0544 146.532 92.5932C147.14 92.132 147.54 91.4482 147.644 90.6921L150.2 72.1012L150.379 72.1259L150.861 68.6198Z" fill="#3F3D56"/>
<path d="M148.572 61.8716L147.273 61.693C147.312 61.8477 147.313 62.0098 147.275 62.165C147.238 62.3201 147.162 62.4636 147.056 62.5828C146.95 62.702 146.816 62.7932 146.666 62.8484C146.516 62.9036 146.355 62.9211 146.196 62.8993L140.494 62.1154C140.336 62.0937 140.185 62.0333 140.056 61.9397C139.926 61.8462 139.822 61.7222 139.752 61.5787C139.682 61.4353 139.648 61.2768 139.653 61.1172C139.659 60.9576 139.703 60.8017 139.783 60.6635L138.57 60.4966C138.303 60.46 138.032 60.4762 137.771 60.5444C137.511 60.6126 137.266 60.7314 137.052 60.894C136.837 61.0567 136.657 61.26 136.521 61.4923C136.385 61.7247 136.296 61.9815 136.26 62.2482L132.722 87.986C132.648 88.5246 132.791 89.0705 133.119 89.5037C133.448 89.9369 133.935 90.2218 134.473 90.2959L144.475 91.6708C145.014 91.7448 145.56 91.6019 145.993 91.2734C146.426 90.9449 146.711 90.4578 146.785 89.9192L150.323 64.1814C150.397 63.6428 150.254 63.0969 149.926 62.6637C149.597 62.2305 149.11 61.9456 148.572 61.8716Z" fill="white"/>
<path d="M141.478 83.2406C144.556 83.2406 147.051 80.7456 147.051 77.6679C147.051 74.5902 144.556 72.0952 141.478 72.0952C138.4 72.0952 135.905 74.5902 135.905 77.6679C135.905 80.7456 138.4 83.2406 141.478 83.2406Z" fill="#6C63FF"/>
<path d="M140.926 79.7934C140.8 79.7936 140.678 79.7531 140.578 79.6779L140.572 79.6732L139.262 78.6705C139.201 78.6242 139.15 78.5662 139.111 78.5C139.073 78.4338 139.048 78.3607 139.038 78.2848C139.027 78.2088 139.032 78.1316 139.052 78.0576C139.072 77.9836 139.106 77.9142 139.152 77.8534C139.199 77.7926 139.257 77.7416 139.323 77.7033C139.39 77.665 139.463 77.6402 139.539 77.6303C139.615 77.6204 139.692 77.6256 139.766 77.6456C139.84 77.6656 139.909 77.7 139.97 77.7468L140.818 78.3973L142.823 75.783C142.869 75.7223 142.927 75.6715 142.993 75.6332C143.06 75.595 143.133 75.5702 143.208 75.5602C143.284 75.5502 143.361 75.5552 143.435 75.575C143.509 75.5947 143.578 75.6288 143.639 75.6753C143.761 75.7693 143.841 75.9082 143.861 76.0612C143.882 76.2141 143.84 76.3688 143.747 76.4913L141.389 79.5663C141.334 79.6372 141.264 79.6945 141.184 79.7339C141.103 79.7733 141.015 79.7936 140.926 79.7934Z" fill="white"/>
<path d="M428.806 195.696H3.61477C3.45509 195.695 3.30211 195.631 3.18937 195.518C3.07662 195.405 3.01331 195.252 3.01331 195.092C3.01331 194.933 3.07662 194.78 3.18937 194.667C3.30211 194.553 3.45509 194.49 3.61477 194.489H428.806C428.966 194.489 429.12 194.553 429.233 194.666C429.346 194.779 429.41 194.932 429.41 195.092C429.41 195.252 429.346 195.406 429.233 195.519C429.12 195.632 428.966 195.696 428.806 195.696Z" fill="#CCCCCC"/>
</g>
<defs>
<clipPath id="clip0_40_39">
<rect width="429.409" height="195.696" fill="white"/>
</clipPath>
</defs>
</svg>
