<svg width="396" height="321" viewBox="0 0 396 321" fill="none" xmlns="http://www.w3.org/2000/svg">
<g clip-path="url(#clip0_38_6)">
<path d="M33.4912 264.387C36.869 272.123 40.9839 279.134 45.7148 285.211C45.8229 285.353 45.9339 285.49 46.0449 285.63L56.1456 276.956C56.0709 276.809 55.9884 276.644 55.9 276.464C50.6262 265.852 26.8078 195.253 26.6622 179.619C26.6439 180.913 18.0904 229.503 33.4912 264.387Z" fill="#E6E6E6"/>
<path d="M43.7657 286.885C43.9216 286.986 44.0809 287.085 44.2414 287.179L51.8192 280.671C51.7009 280.572 51.5628 280.455 51.4046 280.325C48.8105 278.134 41.0917 271.553 33.4918 264.386C25.3259 256.683 17.2927 248.308 15.8987 243.977C16.1888 244.974 25.1798 275.261 43.7657 286.885Z" fill="#E6E6E6"/>
<path d="M363.886 292.848C363.716 301.993 362.656 311.057 360.737 319.775C360.694 319.977 360.647 320.176 360.601 320.378H348.852C348.864 320.197 348.877 319.995 348.889 319.775C349.673 306.758 345.197 228.48 339.797 214.932C340.27 216.031 364.797 251.488 363.886 292.848Z" fill="#E6E6E6"/>
<path d="M363.004 319.775C362.906 319.977 362.804 320.179 362.699 320.378H353.884C353.951 320.206 354.029 320.004 354.118 319.775C355.574 315.976 359.884 304.62 363.885 292.848C368.182 280.196 372.128 267.066 371.796 262.313C371.899 263.384 374.874 296.06 363.004 319.775Z" fill="#E6E6E6"/>
<path d="M190.652 319.906H54.7783C51.5579 319.901 48.4703 318.05 46.1931 314.758C43.9159 311.467 42.635 307.005 42.6313 302.35V17.5562C42.635 12.9016 43.9159 8.43916 46.1931 5.14788C48.4703 1.8566 51.5578 0.00525421 54.7783 0H190.652C193.872 0.0052542 196.96 1.8566 199.237 5.14787C201.514 8.43915 202.795 12.9016 202.799 17.5561V302.35C202.795 307.005 201.514 311.467 199.237 314.758C196.96 318.05 193.872 319.901 190.652 319.906Z" fill="#CACACA"/>
<path d="M190.891 308.705H54.5391C53.5464 308.703 52.5946 308.133 51.8927 307.118C51.1907 306.104 50.7958 304.728 50.7947 303.293V16.613C50.7958 15.1782 51.1907 13.8027 51.8927 12.7881C52.5946 11.7735 53.5464 11.2028 54.5391 11.2012H190.891C191.883 11.2028 192.835 11.7735 193.537 12.7881C194.239 13.8027 194.634 15.1782 194.635 16.613V303.293C194.634 304.728 194.239 306.104 193.537 307.118C192.835 308.133 191.883 308.703 190.891 308.705Z" fill="white"/>
<path d="M122.198 6.8698C122.769 6.8698 123.232 6.20114 123.232 5.37631C123.232 4.55147 122.769 3.88281 122.198 3.88281C121.628 3.88281 121.165 4.55147 121.165 5.37631C121.165 6.20114 121.628 6.8698 122.198 6.8698Z" fill="white"/>
<path d="M395.493 320.941H0.506629C0.372262 320.941 0.2434 320.864 0.148388 320.727C0.053376 320.589 0 320.403 0 320.209C0 320.015 0.053376 319.828 0.148388 319.691C0.2434 319.554 0.372262 319.477 0.506629 319.477H395.493C395.628 319.477 395.757 319.554 395.852 319.691C395.947 319.828 396 320.015 396 320.209C396 320.403 395.947 320.589 395.852 320.727C395.757 320.864 395.628 320.941 395.493 320.941Z" fill="#CACACA"/>
<path d="M122.714 237.594C129.999 237.594 135.904 229.058 135.904 218.53C135.904 208.001 129.999 199.465 122.714 199.465C115.429 199.465 109.523 208.001 109.523 218.53C109.523 229.058 115.429 237.594 122.714 237.594Z" fill="#E4E4E4"/>
<path d="M130.972 181.939H114.456L104.485 111.444C104.229 107.763 104.509 104.045 105.308 100.53C106.107 97.015 107.406 93.781 109.123 91.0365C110.839 88.2919 112.935 86.0976 115.274 84.5951C117.613 83.0926 120.144 82.3152 122.704 82.313C125.263 82.3108 127.795 83.0839 130.135 84.5824C132.476 86.0809 134.573 88.2716 136.292 91.0132C138.011 93.7548 139.313 96.9866 140.114 100.5C140.916 104.014 141.2 107.731 140.946 111.413L130.972 181.939Z" fill="#E4E4E4"/>
<path d="M187.609 87.1825H247.976C250.889 87.1825 253.716 88.6149 255.991 91.2443C258.266 93.8738 259.854 97.5437 260.495 101.651L290.997 297.193C291.33 299.326 291.336 301.538 291.014 303.675C290.693 305.811 290.052 307.82 289.137 309.561C288.221 311.302 287.053 312.732 285.715 313.751C284.377 314.771 282.901 315.355 281.39 315.462L219.332 319.882C216.009 320.118 212.74 318.599 210.135 315.608C207.53 312.617 205.767 308.359 205.174 303.627L187.872 165.376L184.599 139.225L179.769 100.634C179.562 98.9814 179.61 97.2829 179.909 95.6599C180.209 94.0368 180.752 92.5292 181.501 91.2445C182.25 89.9598 183.185 88.9297 184.241 88.2276C185.297 87.5255 186.447 87.1686 187.609 87.1825Z" fill="#3F3D56"/>
<path d="M240.029 91.3985H247.076C249.099 91.3985 251.062 92.3988 252.638 94.2333C254.214 96.0678 255.309 98.6263 255.74 101.484L285.018 295.431C285.187 296.548 285.187 297.704 285.018 298.82C284.849 299.937 284.515 300.988 284.04 301.901C283.564 302.814 282.958 303.568 282.262 304.111C281.567 304.655 280.798 304.975 280.009 305.049L218.152 310.909C216.407 311.074 214.681 310.305 213.303 308.748C211.925 307.191 210.992 304.956 210.682 302.468L185.699 102.005C185.538 100.707 185.575 99.3743 185.809 98.1C186.042 96.8256 186.467 95.6409 187.052 94.6294C187.637 93.6179 188.368 92.8043 189.194 92.2461C190.021 91.6878 190.922 91.3985 191.834 91.3985H198.519C199.166 91.3985 199.795 91.7067 200.308 92.2755C200.822 92.8444 201.191 93.642 201.36 94.5449C201.508 95.3421 201.834 96.0463 202.288 96.5484C202.741 97.0506 203.296 97.3228 203.867 97.3228H235.603C236.721 97.3228 237.798 96.7126 238.619 95.6142C239.44 94.5158 239.943 93.0103 240.029 91.3985Z" fill="white"/>
<path d="M271.249 153.568C271.447 153.753 271.634 153.96 271.809 154.187L292.257 146.654L293.652 139.524L301.372 141.16L299.751 154.129C299.62 155.176 299.257 156.135 298.718 156.859C298.178 157.584 297.49 158.036 296.758 158.147L272.882 161.781C272.493 162.965 271.864 163.95 271.078 164.605C270.292 165.259 269.387 165.552 268.483 165.445C267.579 165.338 266.719 164.836 266.017 164.005C265.316 163.175 264.806 162.055 264.555 160.795C264.305 159.535 264.325 158.195 264.615 156.952C264.904 155.71 265.448 154.624 266.175 153.84C266.901 153.055 267.776 152.609 268.683 152.56C269.589 152.512 270.484 152.863 271.249 153.568Z" fill="#FFB6B6"/>
<path d="M256.657 180.308C263.942 180.308 269.847 171.772 269.847 161.243C269.847 150.715 263.942 142.179 256.657 142.179C249.372 142.179 243.466 150.715 243.466 161.243C243.466 171.772 249.372 180.308 256.657 180.308Z" fill="#6C63FF"/>
<path d="M264.915 124.653H248.399L238.428 54.1576C238.171 50.4765 238.452 46.7587 239.251 43.2438C240.049 39.7289 241.349 36.4949 243.066 33.7503C244.782 31.0058 246.877 28.8115 249.217 27.309C251.556 25.8065 254.087 25.0291 256.647 25.0269C259.206 25.0247 261.738 25.7977 264.078 27.2962C266.419 28.7947 268.516 30.9854 270.235 33.7271C271.953 36.4687 273.256 39.7004 274.057 43.214C274.859 46.7275 275.142 50.4448 274.889 54.1264L264.915 124.653Z" fill="#6C63FF"/>
<path d="M302.752 147.632L297.484 154.2L290.114 163.381L286.859 139.311L286.519 136.808L286.251 134.822L293.718 116.022L299.943 116.539L300.369 116.575L300.377 116.711L300.475 117.971L301.752 134.564L301.782 134.963L302.752 147.632Z" fill="#3F3D56"/>
<path d="M268.321 312.246L263.105 312.245L260.623 283.164L268.322 283.165L268.321 312.246Z" fill="#FFB6B6"/>
<path d="M269.652 319.554L252.831 319.553V319.245C252.831 316.736 253.521 314.329 254.749 312.555C255.977 310.78 257.642 309.783 259.378 309.783H259.379L269.652 309.784L269.652 319.554Z" fill="#2F2E41"/>
<path d="M322.785 312.86L317.568 312.86L315.086 283.779L322.786 283.779L322.785 312.86Z" fill="#FFB6B6"/>
<path d="M324.115 320.169L307.295 320.168V319.86C307.295 317.351 307.985 314.944 309.213 313.17C310.44 311.395 312.106 310.398 313.842 310.398H313.842L324.115 310.399L324.115 320.169Z" fill="#2F2E41"/>
<path d="M326.954 300.054L312.913 303.129L292.485 203.207L270.788 303.744L255.045 300.669L275.469 183.823V174.599L278.235 160.762L277.945 157.016L275.933 130.825L275.06 119.466L275.004 118.732C274.956 118.116 275.069 117.497 275.32 116.995C275.571 116.493 275.943 116.144 276.362 116.016L282.915 114.023H293.625L299.943 116.539L300.377 116.711L300.573 116.791L300.475 117.972L298.995 135.917L298.914 136.901L297.484 154.2L297.169 157.994C309.509 170.909 309.934 183.823 309.934 183.823L326.954 300.054Z" fill="#2F2E41"/>
<path d="M286.976 106.244C292.748 106.244 297.426 99.4811 297.426 91.1391C297.426 82.7972 292.748 76.0347 286.976 76.0347C281.204 76.0347 276.525 82.7972 276.525 91.1391C276.525 99.4811 281.204 106.244 286.976 106.244Z" fill="#FFB6B6"/>
<path d="M297.952 154.523L277.279 158.431L277.665 162.699L298.338 158.792L297.952 154.523Z" fill="#3F3D56"/>
<path d="M249.549 159.717C249.746 159.902 249.934 160.109 250.109 160.337L270.557 152.803L271.952 145.673L279.671 147.31L278.051 160.278C277.92 161.326 277.557 162.284 277.017 163.008C276.478 163.733 275.79 164.185 275.057 164.296L251.182 167.93C250.793 169.115 250.164 170.099 249.378 170.754C248.592 171.409 247.687 171.702 246.783 171.595C245.879 171.488 245.019 170.985 244.317 170.155C243.616 169.324 243.106 168.204 242.855 166.944C242.604 165.684 242.625 164.344 242.914 163.102C243.204 161.859 243.748 160.774 244.475 159.989C245.201 159.205 246.076 158.758 246.982 158.71C247.889 158.661 248.784 159.013 249.549 159.717Z" fill="#FFB6B6"/>
<path d="M281 119.866L277.384 115.868C276.406 115.332 275.066 116.855 274.831 118.328L269.725 148.462L280.362 159.531L281.851 156.149L281 119.866Z" fill="#3F3D56"/>
<g opacity="0.2">
<path d="M301.752 134.564C300.849 135.081 299.929 135.533 298.995 135.917C298.697 136.046 298.39 136.169 298.088 136.286C296.097 137.084 294.051 137.563 291.987 137.712C291.098 137.767 290.208 137.732 289.323 137.608C288.373 137.471 287.434 137.203 286.519 136.808C286.489 136.796 286.455 136.784 286.425 136.771C284.523 135.991 282.779 134.558 281.341 132.596C281.019 132.144 280.719 131.661 280.443 131.15C279.648 129.744 279.065 128.114 278.731 126.363C278.397 124.613 278.319 122.781 278.503 120.985C278.538 120.659 278.587 120.337 278.647 120.019C278.808 119.154 279.02 118.31 279.281 117.498C279.396 117.117 279.524 116.742 279.66 116.373L284.468 114.023H293.625L299.944 116.539L300.369 116.576L300.378 116.711L300.573 116.791L300.475 117.972L301.752 134.564Z" fill="black"/>
</g>
<path d="M278.968 78.6338C277.013 78.2876 274.869 78.5324 273.345 80.3357C271.822 82.1389 271.33 85.8876 272.773 87.825C274.049 89.5403 276.046 89.1369 277.756 89.6247C279.23 90.1019 280.55 91.2798 281.505 92.9697C282.46 94.6596 282.996 96.7638 283.025 98.9456C283 105.202 278.845 109.941 278.099 116.104C277.59 120.31 278.817 124.737 280.939 127.708C283.061 130.68 285.979 132.285 288.918 132.72C291.857 133.155 294.829 132.491 297.685 131.4C300.554 130.304 303.378 128.749 305.784 126.241C308.191 123.734 310.164 120.199 310.937 116.059C311.71 111.918 311.155 107.172 309.164 103.993C306.883 100.353 303.09 99.101 301.117 95.1029C298.906 90.6211 299.725 84.2386 297.935 79.3796C296.74 76.1355 294.478 73.9228 292.067 72.7572C289.655 71.5916 287.08 71.3615 284.539 71.2486C283.203 71.1893 281.826 71.1695 280.581 71.8734C279.337 72.5773 278.243 74.1815 278.178 76.1109C278.114 78.0404 278.968 78.6338 278.968 78.6338Z" fill="#2F2E41"/>
</g>
<defs>
<clipPath id="clip0_38_6">
<rect width="396" height="320.941" fill="white"/>
</clipPath>
</defs>
</svg>
