<svg width="226" height="179" viewBox="0 0 226 179" fill="none" xmlns="http://www.w3.org/2000/svg">
<g clip-path="url(#clip0_93_12)">
<path opacity="0.1" d="M210.283 120.399C201.45 126.962 200.689 139.852 202.206 150.754C202.715 154.403 203.354 158.292 201.813 161.637C199.928 165.729 195.25 167.824 190.78 168.394C182.634 169.433 174.066 166.331 168.474 160.316C163.64 155.117 161.075 148.103 156.096 143.043C147.759 134.576 134.576 133.334 122.748 134.396C114.379 135.147 105.07 136.551 98.3124 131.556C93.5582 128.039 91.258 122 90.7022 116.113C90.4371 113.27 90.4884 110.288 89.2058 107.742C88.4384 106.228 87.2413 104.975 85.9715 103.849C74.3767 93.5645 56.4863 92.5191 45.4751 81.6169C38.038 74.2526 34.9598 63.3354 35.1286 52.8714C35.2975 42.4074 38.3758 32.2213 41.7555 22.3024C44.1518 15.2608 47.0356 7.83021 53.1152 3.54628C59.5304 -0.983492 68.4317 -0.904398 75.64 2.25083C82.8483 5.40607 88.5816 11.2163 93.3038 17.5097C99.2059 25.3764 104.174 34.5257 112.725 39.3847C118.558 42.7045 125.371 43.6045 131.91 45.056C142.84 47.478 153.33 51.5439 163.726 55.7017C173.679 59.6799 183.673 63.7992 192.553 69.8104C198.837 74.058 203.224 79.8576 208.951 84.6375C212.683 87.7521 217.185 89.5541 220.546 93.1412C224.684 97.5598 227.794 104.135 224.821 110.029C221.999 115.628 214.968 116.914 210.283 120.399Z" fill="#6C63FF"/>
<path d="M172.364 37.4419H113.071V39.3551H172.364V37.4419Z" fill="#EBECF0"/>
<path d="M172.364 39.355H113.071V70.841H172.364V39.355Z" fill="#F8F9FA"/>
<path opacity="0.5" d="M171.967 48.9487C171.052 49.1133 170.256 49.5686 169.444 49.9812C168.375 50.5242 167.535 50.661 166.362 50.3254C165.63 50.1116 164.805 49.9278 164.093 50.3061C163.196 50.7828 163.093 52.0569 161.783 51.655C161.329 51.5161 161.141 52.2258 161.588 52.3647C161.969 52.49 162.378 52.4997 162.765 52.3929C163.151 52.286 163.498 52.0672 163.76 51.7641C164.158 51.2959 164.324 50.8384 165.043 50.8213C165.601 50.8085 166.126 51.0351 166.659 51.1719C168.773 51.6892 170.203 50.0111 172.161 49.6584C172.627 49.5729 172.428 48.8653 171.967 48.9487Z" fill="#6C63FF"/>
<path d="M161.74 51.7238C159.717 51.51 157.678 51.3155 155.647 51.5784C153.809 51.8179 152.227 52.5447 150.613 53.4318C148.999 54.319 147.426 55.204 145.564 55.1291C143.702 55.0543 142.013 54.2741 140.22 53.9898C138.494 53.7247 137.137 54.1095 135.73 55.1142C134.903 55.7042 134.099 56.1317 133.067 56.2172C132.156 56.2921 131.241 56.1873 130.328 56.1766C128.784 56.1288 127.268 56.6008 126.023 57.517C124.837 58.372 123.813 59.4409 122.562 60.1998C120.961 61.1724 119.446 60.9843 117.887 60.0287C116.478 59.1737 115.185 58.0556 113.458 57.9808C112.985 57.9595 112.985 58.697 113.458 58.7162C115.091 58.7867 116.346 59.9753 117.686 60.7684C118.877 61.4717 120.2 61.8607 121.566 61.4589C124.322 60.6465 125.859 57.6495 128.702 57.0338C130.562 56.6319 132.511 57.3096 134.352 56.7175C135.16 56.4588 135.801 55.9415 136.489 55.469C137.225 54.9282 138.111 54.6294 139.025 54.614C140.842 54.614 142.563 55.3985 144.333 55.7106C145.954 55.9991 147.626 55.7671 149.108 55.0479C150.991 54.1821 152.672 52.9423 154.726 52.4827C157.028 51.9611 159.429 52.2176 161.753 52.457C162.216 52.5083 162.212 51.773 161.74 51.7238Z" fill="#6C63FF"/>
<path d="M161.772 53.1836C162.584 53.1836 163.242 52.5252 163.242 51.7129C163.242 50.9007 162.584 50.2422 161.772 50.2422C160.959 50.2422 160.301 50.9007 160.301 51.7129C160.301 52.5252 160.959 53.1836 161.772 53.1836Z" fill="#6C63FF"/>
<path d="M114.33 38.765C114.573 38.765 114.77 38.5678 114.77 38.3246C114.77 38.0814 114.573 37.8843 114.33 37.8843C114.087 37.8843 113.89 38.0814 113.89 38.3246C113.89 38.5678 114.087 38.765 114.33 38.765Z" fill="#F8F9FA"/>
<path d="M115.506 38.765C115.749 38.765 115.946 38.5678 115.946 38.3246C115.946 38.0814 115.749 37.8843 115.506 37.8843C115.263 37.8843 115.065 38.0814 115.065 38.3246C115.065 38.5678 115.263 38.765 115.506 38.765Z" fill="#F8F9FA"/>
<path d="M116.684 38.765C116.927 38.765 117.124 38.5678 117.124 38.3246C117.124 38.0814 116.927 37.8843 116.684 37.8843C116.441 37.8843 116.243 38.0814 116.243 38.3246C116.243 38.5678 116.441 38.765 116.684 38.765Z" fill="#F8F9FA"/>
<path d="M1.52205 120.711C1.52205 120.711 -9.07449 137.265 25.663 137.55C25.663 137.55 26.1739 123.146 14.8185 117.212C12.6104 116.053 10.054 115.744 7.63339 116.343C5.21279 116.943 3.09618 118.41 1.68451 120.465L1.52205 120.711Z" fill="#6C63FF"/>
<path d="M1.6012 120.434C1.6012 120.434 19.3932 123.939 25.6631 137.55" stroke="#535461" stroke-width="0.213769" stroke-miterlimit="10"/>
<path d="M27.215 135.323C27.215 135.323 15.7912 120.56 16.8344 106.006C17.2619 99.8991 15.8275 93.7981 12.5141 88.6463C10.9375 86.207 9.14072 83.9172 7.14636 81.8057" stroke="#535461" stroke-width="0.427538" stroke-miterlimit="10"/>
<path d="M7.74488 72.6324C8.54224 74.676 7.15487 82.0489 7.15487 82.0489C7.15487 82.0489 1.14155 77.5619 0.344189 75.5183C0.133948 75.0284 0.0244213 74.5012 0.0221314 73.9681C0.0198415 73.435 0.124834 72.9069 0.33086 72.4152C0.536885 71.9235 0.839732 71.4783 1.22137 71.1061C1.60301 70.7339 2.05563 70.4423 2.55231 70.2486C3.04898 70.0549 3.57954 69.9631 4.11242 69.9788C4.64529 69.9944 5.16957 70.117 5.65405 70.3394C6.13854 70.5619 6.57332 70.8795 6.93252 71.2734C7.29172 71.6673 7.56798 72.1295 7.74488 72.6324Z" fill="#6C63FF"/>
<path d="M18.2837 81.5635C17.8434 83.714 12.6702 89.148 12.6702 89.148C12.6702 89.148 10.0579 82.115 10.4983 79.9559C10.5918 79.434 10.7889 78.9361 11.0778 78.4915C11.3667 78.0469 11.7417 77.6647 12.1807 77.3672C12.6196 77.0698 13.1136 76.8632 13.6337 76.7597C14.1537 76.6561 14.6892 76.6576 15.2086 76.7642C15.728 76.8708 16.2208 77.0802 16.658 77.3801C17.0953 77.6801 17.468 78.0645 17.7544 78.5108C18.0408 78.957 18.2349 79.4561 18.3255 79.9785C18.416 80.5009 18.4011 81.0362 18.2816 81.5528L18.2837 81.5635Z" fill="#6C63FF"/>
<path d="M25.569 101.016C24.1025 102.65 16.8964 104.73 16.8964 104.73C16.8964 104.73 18.1918 97.3395 19.6561 95.7064C20.3646 94.9386 21.3468 94.4806 22.3904 94.4316C23.4339 94.3826 24.4548 94.7465 25.232 95.4445C26.0093 96.1425 26.4804 97.1185 26.5435 98.1613C26.6065 99.2041 26.2565 100.23 25.569 101.016Z" fill="#6C63FF"/>
<path d="M27.7665 116.979C26.5972 118.836 19.8442 122.109 19.8442 122.109C19.8442 122.109 19.872 114.608 21.0413 112.75C21.3137 112.297 21.6738 111.903 22.1005 111.591C22.5272 111.278 23.0119 111.055 23.5262 110.932C24.0405 110.809 24.5742 110.791 25.0958 110.877C25.6174 110.963 26.1166 111.153 26.5641 111.434C27.0116 111.716 27.3983 112.084 27.7018 112.517C28.0052 112.95 28.2192 113.439 28.3311 113.956C28.4431 114.473 28.4509 115.007 28.3539 115.526C28.257 116.046 28.0573 116.541 27.7665 116.983V116.979Z" fill="#6C63FF"/>
<path d="M5.04715 92.5773C7.06941 93.4324 14.4765 92.2395 14.4765 92.2395C14.4765 92.2395 10.1626 86.1001 8.14039 85.245C7.65894 85.0419 7.14221 84.9356 6.61969 84.9322C6.09717 84.9288 5.57909 85.0284 5.09504 85.2252C4.61099 85.422 4.17045 85.7122 3.79856 86.0793C3.42668 86.4464 3.13073 86.8831 2.92763 87.3645C2.72452 87.846 2.61823 88.3627 2.61483 88.8852C2.61143 89.4078 2.71098 89.9258 2.90779 90.4099C3.10461 90.8939 3.39484 91.3345 3.76191 91.7064C4.12898 92.0782 4.5657 92.3742 5.04715 92.5773Z" fill="#6C63FF"/>
<path d="M7.8603 111.211C10.045 111.425 16.7552 108.067 16.7552 108.067C16.7552 108.067 10.7975 103.509 8.61277 103.3C8.08597 103.235 7.55166 103.277 7.04135 103.423C6.53104 103.569 6.05508 103.815 5.64155 104.148C5.22801 104.48 4.88529 104.893 4.63359 105.36C4.38189 105.827 4.22633 106.34 4.17607 106.868C4.12581 107.396 4.18187 107.929 4.34095 108.436C4.50004 108.942 4.75891 109.411 5.10231 109.816C5.44571 110.221 5.86667 110.552 6.34035 110.792C6.81404 111.031 7.33085 111.173 7.8603 111.209V111.211Z" fill="#6C63FF"/>
<path d="M13.0741 128.946C15.1926 129.521 22.3731 127.349 22.3731 127.349C22.3731 127.349 17.2704 121.849 15.152 121.276C14.6448 121.128 14.1133 121.083 13.5885 121.143C13.0637 121.203 12.5561 121.367 12.0955 121.625C11.6348 121.884 11.2303 122.232 10.9056 122.648C10.5809 123.065 10.3425 123.542 10.2044 124.052C10.0663 124.562 10.0312 125.094 10.1012 125.618C10.1712 126.141 10.3449 126.646 10.6121 127.101C10.8793 127.557 11.2346 127.955 11.6574 128.272C12.0801 128.588 12.5617 128.818 13.0741 128.946Z" fill="#6C63FF"/>
<path opacity="0.25" d="M7.74488 72.6324C8.54224 74.676 7.15487 82.0489 7.15487 82.0489C7.15487 82.0489 1.14155 77.5619 0.344189 75.5183C0.133948 75.0284 0.0244213 74.5012 0.0221314 73.9681C0.0198415 73.435 0.124834 72.9069 0.33086 72.4152C0.536885 71.9235 0.839732 71.4783 1.22137 71.1061C1.60301 70.7339 2.05563 70.4423 2.55231 70.2486C3.04898 70.0549 3.57954 69.9631 4.11242 69.9788C4.64529 69.9944 5.16957 70.117 5.65405 70.3394C6.13854 70.5619 6.57332 70.8795 6.93252 71.2734C7.29172 71.6673 7.56798 72.1295 7.74488 72.6324Z" fill="black"/>
<path opacity="0.25" d="M18.2837 81.5635C17.8434 83.714 12.6702 89.148 12.6702 89.148C12.6702 89.148 10.0579 82.115 10.4983 79.9559C10.5918 79.434 10.7889 78.9361 11.0778 78.4915C11.3667 78.0469 11.7417 77.6647 12.1807 77.3672C12.6196 77.0698 13.1136 76.8632 13.6337 76.7597C14.1537 76.6561 14.6892 76.6576 15.2086 76.7642C15.728 76.8708 16.2208 77.0802 16.658 77.3801C17.0953 77.6801 17.468 78.0645 17.7544 78.5108C18.0408 78.957 18.2349 79.4561 18.3255 79.9785C18.416 80.5009 18.4011 81.0362 18.2816 81.5528L18.2837 81.5635Z" fill="black"/>
<path opacity="0.25" d="M25.569 101.016C24.1025 102.65 16.8964 104.73 16.8964 104.73C16.8964 104.73 18.1918 97.3395 19.6561 95.7064C20.3646 94.9386 21.3468 94.4806 22.3904 94.4316C23.4339 94.3826 24.4548 94.7465 25.232 95.4445C26.0093 96.1425 26.4804 97.1185 26.5435 98.1613C26.6065 99.2041 26.2565 100.23 25.569 101.016Z" fill="black"/>
<path opacity="0.25" d="M27.7665 116.979C26.5972 118.836 19.8442 122.109 19.8442 122.109C19.8442 122.109 19.872 114.608 21.0413 112.75C21.3137 112.297 21.6738 111.903 22.1005 111.591C22.5272 111.278 23.0119 111.055 23.5262 110.932C24.0405 110.809 24.5742 110.791 25.0958 110.877C25.6174 110.963 26.1166 111.153 26.5641 111.434C27.0116 111.716 27.3983 112.084 27.7018 112.517C28.0052 112.95 28.2192 113.439 28.3311 113.956C28.4431 114.473 28.4509 115.007 28.3539 115.526C28.257 116.046 28.0573 116.541 27.7665 116.983V116.979Z" fill="black"/>
<path opacity="0.25" d="M5.04715 92.5773C7.06941 93.4324 14.4765 92.2395 14.4765 92.2395C14.4765 92.2395 10.1626 86.1001 8.14039 85.245C7.65894 85.0419 7.14221 84.9356 6.61969 84.9322C6.09717 84.9288 5.57909 85.0284 5.09504 85.2252C4.61099 85.422 4.17045 85.7122 3.79856 86.0793C3.42668 86.4464 3.13073 86.8831 2.92763 87.3645C2.72452 87.846 2.61823 88.3627 2.61483 88.8852C2.61143 89.4078 2.71098 89.9258 2.90779 90.4099C3.10461 90.8939 3.39484 91.3345 3.76191 91.7064C4.12898 92.0782 4.5657 92.3742 5.04715 92.5773Z" fill="black"/>
<path opacity="0.25" d="M7.8603 111.211C10.045 111.425 16.7552 108.067 16.7552 108.067C16.7552 108.067 10.7975 103.509 8.61277 103.3C8.08597 103.235 7.55166 103.277 7.04135 103.423C6.53104 103.569 6.05508 103.815 5.64155 104.148C5.22801 104.48 4.88529 104.893 4.63359 105.36C4.38189 105.827 4.22633 106.34 4.17607 106.868C4.12581 107.396 4.18187 107.929 4.34095 108.436C4.50004 108.942 4.75891 109.411 5.10231 109.816C5.44571 110.221 5.86667 110.552 6.34035 110.792C6.81404 111.031 7.33085 111.173 7.8603 111.209V111.211Z" fill="black"/>
<path opacity="0.25" d="M13.0741 128.946C15.1926 129.521 22.3731 127.349 22.3731 127.349C22.3731 127.349 17.2704 121.849 15.152 121.276C14.6448 121.128 14.1133 121.083 13.5885 121.143C13.0637 121.203 12.5561 121.367 12.0955 121.625C11.6348 121.884 11.2303 122.232 10.9056 122.648C10.5809 123.065 10.3425 123.542 10.2044 124.052C10.0663 124.562 10.0312 125.094 10.1012 125.618C10.1712 126.141 10.3449 126.646 10.6121 127.101C10.8793 127.557 11.2346 127.955 11.6574 128.272C12.0801 128.588 12.5617 128.818 13.0741 128.946Z" fill="black"/>
<path opacity="0.1" d="M99.0821 106.979C95.0205 106.889 90.6574 107.092 87.4295 108.689C81.444 111.643 82.2499 117.635 78.3465 121.793C75.0501 125.303 68.7504 127.126 62.6408 128.289C52.6878 130.186 42.2494 130.895 32.3647 132.932C26.5374 134.134 20.7528 135.88 16.7596 138.869C12.7664 141.857 10.975 146.314 13.6749 149.85C16.1717 153.119 21.672 154.867 26.6806 156.56C31.6892 158.253 36.995 160.474 38.3887 164.004C39.1647 165.968 38.5875 168.087 39.4939 170.026C41.281 173.852 47.9741 175.658 53.9875 176.635C58.7909 177.416 63.6733 177.991 68.5943 178.346C72.5255 178.634 76.5465 178.786 80.4051 178.224C83.7463 177.736 86.8395 176.727 90.0439 175.951C110.403 170.994 133.82 175.282 154.585 171.084C158.365 170.325 162.082 169.256 164.946 167.507C167.084 166.208 168.666 164.583 169.998 162.899C173.388 158.623 175.246 153.828 175.389 149.021C175.475 146.139 174.962 143.228 175.75 140.389C176.578 137.434 178.786 134.717 179.962 131.812C182.099 126.532 180.603 120.696 175.949 116.128C174.288 114.444 172.251 113.178 170.006 112.434C168.125 111.831 166.022 111.6 163.95 111.365C158.179 110.739 152.332 110.11 146.509 110.463C142.366 110.715 138.311 111.461 134.155 111.596C128.324 111.786 123.755 110.442 118.469 109.178C112.387 107.738 105.544 107.12 99.0821 106.979Z" fill="#6C63FF"/>
<path d="M25.6823 63.2779V120.455L101.758 105.677L100.305 61.8242L25.6823 63.2779Z" fill="#DBACA2"/>
<path d="M168.687 130.692V149.59L88.2504 173.091L87.4295 172.666L23.8054 139.656V61.5209L102.545 58.9771L103.03 102.344L99.8794 103.315L98.6674 62.7522L29.3762 65.155L28.8931 123.907L89.2188 150.316L89.2658 150.306L168.687 130.692Z" fill="#E8C2B8"/>
<path opacity="0.1" d="M168.687 130.692V149.59L88.2503 173.091L87.4294 172.666L89.2657 150.306L168.687 130.692Z" fill="black"/>
<path d="M71.7153 103.253C71.7153 103.253 32.7708 107.139 28.9892 112.768C25.2076 118.396 28.9572 125.301 28.9572 125.301L89.1631 151.466L170.81 130.389C170.81 130.389 168.63 115.609 161.847 113.913C155.064 112.218 101.029 100.589 101.029 100.589C101.029 100.589 79.225 99.2553 71.7153 103.253Z" fill="#EBECF0"/>
<path d="M28.9529 112.821L90.3709 134.021C90.3709 134.021 155.88 114.157 165.16 116.028C165.16 116.028 119.334 99.6251 101.029 100.339C86.4418 100.908 71.168 103.302 71.168 103.302C71.168 103.302 30.6502 107.372 28.9529 112.821Z" fill="#F8F9FA"/>
<path d="M123.45 126.46L123.465 126.438V126.425L123.475 126.404V126.389V126.368V126.353V126.329V126.314V126.286V126.274C123.475 126.261 123.475 126.248 123.475 126.235C123.475 126.22 123.475 126.205 123.475 126.19C123.475 126.175 123.475 126.19 123.475 126.175C123.475 126.16 123.475 126.154 123.475 126.143V126.124V126.092V126.07V126.038V126.017V125.983V125.961V125.925V125.906L123.458 125.852L123.437 125.793V125.773L123.42 125.731V125.707L123.403 125.666L123.392 125.641L123.375 125.6L123.362 125.572L123.343 125.532L123.33 125.506L123.306 125.461L123.294 125.438L123.262 125.376L123.223 125.303L123.21 125.28L123.182 125.228L123.167 125.2L123.14 125.153L123.123 125.123L123.095 125.076L123.048 125.006L123.018 124.959L122.999 124.929L122.967 124.878L122.949 124.85L122.907 124.781V124.769L122.853 124.687L122.836 124.664L122.798 124.606L122.776 124.576L122.74 124.525L122.719 124.493L122.682 124.442L122.659 124.407L122.62 124.365L122.597 124.333L122.556 124.277L122.535 124.249L122.481 124.176V124.166L122.419 124.08L122.398 124.05L122.357 123.995L122.329 123.958L122.291 123.907L122.263 123.871L122.225 123.819L122.197 123.785L122.156 123.732L122.129 123.698L122.086 123.642L122.06 123.61L122.009 123.546L121.992 123.524C121.799 123.281 121.601 123.037 121.402 122.802C120.841 122.135 120.154 121.586 119.381 121.185C118.608 120.784 117.763 120.54 116.895 120.465C116.718 120.45 116.532 120.431 116.344 120.408H116.265L116.126 120.389H116.06L115.846 120.359L115.643 120.326L115.572 120.314L115.429 120.288L115.344 120.271L115.213 120.245L115.121 120.226L114.997 120.198L114.903 120.177L114.779 120.147L114.683 120.123L114.561 120.091L114.465 120.066L114.343 120.031C113.702 119.078 112.727 118.229 111.778 118.065C111.516 118.024 111.249 118.038 110.993 118.105L110.948 118.056L110.884 117.984L110.799 117.875L110.743 117.802L110.653 117.676L110.609 117.614C110.564 117.55 110.522 117.484 110.482 117.417C110.356 117.361 110.224 117.319 110.089 117.291C111.981 117.004 113.846 116.565 115.666 115.976C115.755 115.943 115.839 115.899 115.916 115.846L115.955 115.833C117.539 115.256 119.484 109.634 118.116 108.847C116.748 108.06 114.659 101.579 113.435 98.2591C112.21 94.9393 108.68 94.5866 108.68 94.5866C108.68 94.5866 103.567 90.6254 101.263 91.0572C98.9581 91.489 98.5968 88.0324 98.3809 87.8892C98.3558 87.8683 98.3347 87.843 98.3189 87.8144C97.7631 86.9443 93.3445 85.7835 90.961 85.2106C88.6309 83.5219 85.8519 82.2115 83.6052 81.6706C82.8547 81.4675 82.0673 81.441 81.3048 81.5931C80.5423 81.7451 79.8253 82.0716 79.2101 82.5471C74.4901 82.7865 73.7376 86.3522 73.7376 86.3522C73.7215 86.8387 73.8059 87.3234 73.9856 87.7759C73.7306 87.7793 73.4757 87.7658 73.2225 87.7353C73.7697 86.831 73.7868 85.6681 74.1951 84.6741C75.001 82.7074 77.2242 81.692 79.3256 81.4269C80.5505 81.273 81.8908 81.273 82.857 80.5056C83.3543 80.1082 83.6939 79.5466 83.8147 78.9216C83.8539 78.7866 83.8417 78.6419 83.7805 78.5154C83.7207 78.4334 83.6403 78.3685 83.5475 78.3273C82.282 77.6518 80.7578 77.8271 79.3213 77.795C76.9869 77.7437 74.7124 77.1045 72.455 76.5124C71.4995 76.2623 70.467 76.0207 69.5435 76.3756C68.6713 76.709 68.077 77.5043 67.378 78.1221C64.5135 80.6488 59.7571 80.2833 57.209 83.1307C56.619 83.7912 56.1765 84.6869 56.3924 85.5463C56.4801 85.8968 56.6746 86.2196 56.7366 86.5766C56.8606 87.2821 56.4587 87.9576 56.1188 88.5882C55.7789 89.2188 55.4775 89.9841 55.7981 90.6254C56.2834 91.6045 57.7648 91.5318 58.5344 92.3078C58.8914 92.6691 59.0645 93.1864 59.4365 93.5305C60.0329 94.0799 60.95 94.0372 61.758 93.9581C62.0765 93.9282 62.5532 93.8405 62.7285 93.5605C63.3535 94.1484 64.1065 94.5831 64.9282 94.8305C65.7498 95.0779 66.6176 95.1312 67.4634 94.9861C68.3091 94.841 69.1096 94.5016 69.8018 93.9945C70.494 93.4875 71.0591 92.8267 71.4524 92.0641C73.1938 91.9465 74.9244 92.4145 76.3691 93.3937C76.5868 94.0354 76.9864 94.5998 77.5192 95.0184C78.0237 95.4138 78.6244 95.8991 79.2294 96.4186C77.6966 96.8226 76.3349 97.0812 76.3349 97.0812C76.3349 97.0812 70.2853 99.0265 70.2853 100.322C70.3067 100.557 70.3797 100.784 70.499 100.987C70.3459 101.309 70.2593 101.659 70.2446 102.015C68.5751 101.733 67.2391 101.307 66.5486 100.681C66.5486 100.681 66.3519 100.628 66.0484 100.568C65.6422 100.048 64.4494 98.6054 63.7397 98.6631C63.2672 98.7016 63.0983 99.8004 63.0385 100.784C62.9763 100.837 62.9217 100.899 62.876 100.968C62.1556 102.047 63.4532 104.208 64.3168 104.57C65.1805 104.931 69.9347 104.783 73.1754 107.163C74.612 108.216 77.081 108.42 79.3747 108.321C77.0682 109.95 73.8381 112.453 73.3892 114.005C73.1476 114.828 72.8633 115.85 72.8804 116.9C71.4695 118.766 69.334 122.706 74.6141 124.595C78.9664 126.15 90.7665 125.951 99.174 125.57C103.086 126.261 106.316 126.955 107.671 127.62C107.671 127.62 110.912 128.048 112.21 128.845C113.507 129.643 115.882 129.422 115.882 129.422C115.882 129.422 120.491 130.215 121.5 131.222C122.509 132.229 124.236 129.493 122.077 128.197C121.235 127.693 119.98 126.861 118.764 125.951C120.326 126.135 121.705 126.336 122.582 126.541L122.669 126.56H122.697H122.753H122.785H122.832H122.862H122.907H123.12H123.176H123.193H123.227H123.247H123.274H123.291H123.317H123.334L123.358 126.549H123.373L123.394 126.534H123.405L123.433 126.511L123.45 126.46ZM103.554 119.555C103.554 119.555 102.947 119.416 102.041 119.202L100.241 118.475C100.241 118.475 103.313 117.509 106.158 116.28C106.972 116.637 107.688 116.921 107.868 117.18C107.945 117.266 108.051 117.321 108.165 117.336C107.096 117.601 105.724 118.283 104.114 119.856C103.919 119.773 103.732 119.672 103.554 119.555ZM81.8053 102.197L83.5817 101.372C83.9686 101.701 84.3833 102.013 84.7895 102.316C83.8147 102.374 82.5043 102.438 81.0229 102.479C81.4761 102.327 81.8053 102.197 81.8053 102.197Z" fill="url(#paint0_linear_93_12)"/>
<path d="M66.6682 100.82C66.6682 100.82 65.1162 98.7122 64.2718 98.7763C63.4274 98.8405 63.5664 102.372 63.5664 102.372L66.6682 100.82Z" fill="#FFD5D8"/>
<path d="M86.6213 102.231C86.6213 102.231 70.1226 103.571 67.0208 100.749C67.0208 100.749 64.1307 99.9735 63.4252 101.032C62.7198 102.09 63.9896 104.204 64.8361 104.557C65.6826 104.909 70.3364 104.77 73.5087 107.094C76.681 109.418 85.0009 107.522 85.0009 107.522L88.4554 106.181L86.6213 102.231Z" fill="#FF7C5E"/>
<path opacity="0.05" d="M86.6213 102.231C86.6213 102.231 70.1226 103.571 67.0208 100.749C67.0208 100.749 64.1307 99.9735 63.4252 101.032C62.7198 102.09 63.9896 104.204 64.8361 104.557C65.6826 104.909 70.3364 104.77 73.5087 107.094C76.681 109.418 85.0009 107.522 85.0009 107.522L88.4554 106.181L86.6213 102.231Z" fill="black"/>
<path d="M110.241 110.128C110.241 110.128 106.716 107.59 99.4539 110.769C92.1922 113.948 74.0731 115.634 74.0731 115.634C74.0731 115.634 68.0106 121.697 74.9282 124.166C81.8458 126.635 107.923 124.594 107.923 124.594C107.923 124.594 118.569 125.299 121.883 126.075C123.888 126.545 122.31 124.275 120.739 122.411C120.19 121.758 119.518 121.22 118.761 120.827C118.004 120.435 117.177 120.195 116.327 120.124C114.245 119.946 111.357 119.292 110.036 117.12C110.036 117.12 107.498 115.85 103.691 119.658L100.018 118.165C100.018 118.165 110.1 114.993 110.452 112.877C110.805 110.761 110.241 110.128 110.241 110.128Z" fill="#FFD5D8"/>
<path opacity="0.05" d="M110.241 110.128C110.241 110.128 106.716 107.59 99.4539 110.769C92.1922 113.948 74.0731 115.634 74.0731 115.634C74.0731 115.634 68.0106 121.697 74.9282 124.166C81.8458 126.635 107.923 124.594 107.923 124.594C107.923 124.594 118.569 125.299 121.883 126.075C123.64 126.485 122.641 124.792 121.318 123.121C120.658 122.281 119.839 121.58 118.907 121.058C117.975 120.537 116.949 120.204 115.889 120.081C113.858 119.85 111.267 119.142 110.038 117.12C110.038 117.12 107.5 115.85 103.693 119.658L100.018 118.165C100.018 118.165 110.1 114.993 110.452 112.877C110.805 110.761 110.241 110.128 110.241 110.128Z" fill="black"/>
<path d="M110.311 100.117C110.311 100.117 105.869 93.0623 95.3645 99.1996L81.8971 106.682C81.8971 106.682 74.4151 111.406 73.7183 113.802C73.0214 116.199 71.9547 120.288 79.2891 121.84C86.6235 123.392 103.684 125.365 107.28 127.129C107.28 127.129 110.452 127.556 111.722 128.328C112.992 129.099 115.318 128.892 115.318 128.892C115.318 128.892 119.83 129.668 120.818 130.656C121.806 131.643 123.497 128.963 121.382 127.695C119.268 126.427 114.473 123.041 114.542 121.709C114.61 120.378 112.919 118.024 111.29 117.738C109.661 117.451 107.554 119.852 107.554 119.852C107.554 119.852 104.875 120.279 103.253 119.211C103.253 119.211 94.9327 117.306 94.0862 116.744C93.2397 116.181 87.4593 113.995 87.4593 113.995C87.4593 113.995 101.141 113.853 105.155 110.187C105.155 110.187 106.707 109.059 107.975 109.411C107.985 109.422 114.26 107.026 110.311 100.117Z" fill="#FFD5D8"/>
<path d="M70.3343 86.8608C70.3343 86.8608 74.3532 89.6805 77.455 86.8608C80.5567 84.0412 78.7974 95.5335 78.7974 95.5335C78.7974 95.5335 74.4964 89.8215 68.0812 93.5604L70.3343 86.8608Z" fill="#FFD5D8"/>
<path opacity="0.05" d="M70.3343 86.8608C70.3343 86.8608 74.3532 89.6805 77.455 86.8608C80.5567 84.0412 78.7974 95.5335 78.7974 95.5335C78.7974 95.5335 74.4964 89.8215 68.0812 93.5604L70.3343 86.8608Z" fill="black"/>
<path d="M53.1323 111.045C53.1323 111.045 57.3628 107.449 59.7592 107.379C60.4732 107.357 61.2983 106.63 62.1106 105.621C63.1368 104.347 64.4902 103.375 66.0262 102.81C67.5621 102.245 69.2227 102.109 70.8303 102.415C72.1941 102.667 73.8722 102.661 75.9094 102.156C83.3122 100.322 79.6461 95.7432 79.6461 95.7432L77.3203 93.7701C77.3203 93.7701 74.148 91.5854 72.9487 91.7265C71.7495 91.8676 68.6477 95.0399 68.295 94.6872C67.9422 94.3345 63.6412 91.1621 62.9358 90.3156C62.2303 89.4691 56.5868 86.72 57.9977 85.944C59.4086 85.1681 66.5271 82.2779 65.1162 81.7135C63.7053 81.1492 56.0909 80.3027 53.1302 83.8277C50.1695 87.3528 51.6488 108.999 53.1323 111.045Z" fill="#F8F9FA"/>
<path opacity="0.05" d="M53.1323 111.045C53.1323 111.045 57.3628 107.449 59.7592 107.379C60.4732 107.357 61.2983 106.63 62.1106 105.621C63.1368 104.347 64.4902 103.375 66.0262 102.81C67.5621 102.245 69.2227 102.109 70.8303 102.415C72.1941 102.667 73.8722 102.661 75.9094 102.156C83.3122 100.322 79.6461 95.7432 79.6461 95.7432L77.3203 93.7701C77.3203 93.7701 74.148 91.5854 72.9487 91.7265C71.7495 91.8676 68.6477 95.0399 68.295 94.6872C67.9422 94.3345 63.6412 91.1621 62.9358 90.3156C62.2303 89.4691 56.5868 86.72 57.9977 85.944C59.4086 85.1681 66.5271 82.2779 65.1162 81.7135C63.7053 81.1492 56.0909 80.3027 53.1302 83.8277C50.1695 87.3528 51.6488 108.999 53.1323 111.045Z" fill="black"/>
<path d="M53.4146 110.551C53.4146 110.551 57.6451 106.955 60.0414 106.885C60.7554 106.863 61.5806 106.137 62.3929 105.128C63.4179 103.854 64.7695 102.883 66.3033 102.318C67.8372 101.753 69.4957 101.615 71.1019 101.919C72.4657 102.171 74.1438 102.165 76.181 101.66C83.5838 99.8261 79.9177 95.2472 79.9177 95.2472L77.5919 93.2741C77.5919 93.2741 74.4196 91.0894 73.2203 91.2305C72.0211 91.3715 68.9193 94.5439 68.5666 94.1912C68.2138 93.8384 63.9128 90.6661 63.2074 89.8196C62.5019 88.9731 56.8691 86.2261 58.2757 85.4587C59.6823 84.6913 66.8072 81.7925 65.3964 81.2282C63.9855 80.6638 56.371 79.8173 53.4103 83.3424C50.4496 86.8674 51.9332 108.505 53.4146 110.551Z" fill="#F8F9FA"/>
<path d="M74.071 86.72C74.071 86.72 75.1997 81.3608 83.449 83.4771C91.6984 85.5934 95.7878 90.1745 95.7878 90.1745L88.3059 93.629L79.1395 90.5272C79.1395 90.5272 74.0026 90.5892 74.071 86.72Z" fill="#FFD5D8"/>
<path opacity="0.05" d="M89.1609 85.3798C89.1609 85.3798 97.0939 87.09 97.8421 88.2679C97.858 88.2958 97.879 88.3205 97.9041 88.3405C98.1178 88.4816 98.4684 91.8656 100.724 91.4423C102.979 91.0191 107.992 94.8968 107.992 94.8968C107.992 94.8968 111.446 95.2496 112.646 98.4924C113.845 101.735 115.888 108.082 117.229 108.856C118.569 109.63 116.664 115.13 115.115 115.697C113.565 116.263 107.994 117.601 107.5 116.896C107.006 116.19 102.705 115.414 102.987 113.159C103.27 110.904 104.961 108.788 103.629 107.447C102.297 106.107 101.444 102.582 99.4689 101.876C97.4936 101.171 93.9686 100.959 91.8544 102.37C89.7402 103.781 87.1857 103.843 87.1857 103.843C87.1857 103.843 82.8141 101.306 82.1087 99.5421C81.6341 98.3535 79.2698 96.3654 77.7777 95.1961C77.3866 94.8892 77.0672 94.5006 76.8416 94.0576C76.6161 93.6146 76.4898 93.1277 76.4716 92.6309C76.4096 90.8908 76.354 88.3256 76.5378 87.9109C76.82 87.2696 80.6978 83.4688 80.6978 83.4688L89.1609 85.3798Z" fill="black"/>
<path d="M89.4432 85.2448C89.4432 85.2448 97.3762 86.955 98.1244 88.1329C98.1403 88.1608 98.1613 88.1854 98.1864 88.2055C98.4002 88.3466 98.7508 91.7306 101.006 91.3073C103.261 90.8841 108.274 94.7618 108.274 94.7618C108.274 94.7618 111.729 95.1145 112.928 98.3574C114.127 101.6 116.171 107.947 117.511 108.721C118.851 109.495 116.947 114.995 115.397 115.562C113.847 116.128 108.276 117.466 107.783 116.761C107.289 116.055 102.988 115.279 103.27 113.024C103.552 110.769 105.243 108.653 103.911 107.312C102.579 105.972 101.726 102.447 99.7512 101.741C97.776 101.036 94.2509 100.824 92.1367 102.235C90.0226 103.646 87.2372 103.892 87.2372 103.892C87.2372 103.892 83.1135 101.177 82.4081 99.4156C81.9335 98.227 79.5693 96.239 78.0771 95.0697C77.6861 94.7627 77.3666 94.3742 77.1411 93.9311C76.9155 93.4881 76.7892 93.0012 76.771 92.5044C76.709 90.7643 76.6534 88.1991 76.8373 87.7844C77.1195 87.1431 80.9972 83.3423 80.9972 83.3423L89.4432 85.2448Z" fill="#FF7C5E"/>
<path d="M71.1809 100.538C71.1103 100.609 69.9111 102.372 71.322 103.358C71.7123 103.644 72.1633 103.837 72.6399 103.921C73.1166 104.005 73.6063 103.978 74.071 103.843L71.1809 100.538Z" fill="#FFD5D8"/>
<path opacity="0.1" d="M77.9424 85.1678C77.9424 85.1678 79.8471 81.3605 83.9279 82.3481C88.0088 83.3358 93.9387 86.9313 95.3496 90.5269C96.7605 94.1225 90.0054 98.4984 90.0054 98.4984L81.9676 102.235C81.9676 102.235 79.5008 103.223 78.7953 102.876C78.0899 102.53 74.7059 105.553 74.7059 105.553C74.7059 105.553 70.8987 101.887 70.8987 100.617C70.8987 99.3471 76.8222 97.4296 76.8222 97.4296C76.8222 97.4296 83.8766 96.0892 83.8018 94.751C83.8018 94.751 85.001 93.3402 84.3661 92.9169C83.7312 92.4936 76.927 90.4842 76.927 90.4842C76.927 90.4842 76.6811 86.0143 77.9424 85.1678Z" fill="black"/>
<path d="M77.7286 84.9563C77.7286 84.9563 79.6333 81.1491 83.7141 82.1367C87.795 83.1243 93.7249 86.7199 95.1358 90.3155C96.5467 93.9111 89.7937 98.2848 89.7937 98.2848L81.756 102.022C81.756 102.022 79.2891 103.009 78.5836 102.663C77.8782 102.317 74.4942 105.339 74.4942 105.339C74.4942 105.339 70.687 101.673 70.687 100.403C70.687 99.1335 76.6106 97.216 76.6106 97.216C76.6106 97.216 83.6649 95.8757 83.5901 94.5375C83.5901 94.5375 84.7894 93.1266 84.1545 92.7033C83.5196 92.2801 76.7153 90.2706 76.7153 90.2706C76.7153 90.2706 76.4695 85.8029 77.7286 84.9563Z" fill="#FF7C5E"/>
<path opacity="0.1" d="M68.714 92.8528C69.8576 92.1562 71.1451 91.73 72.4785 91.6066C72.8654 90.8605 71.85 90.0482 71.85 89.1504C71.85 88.3979 71.5635 88.1114 71.2856 87.4573C70.2766 87.0918 70.9693 86.1533 70.9693 86.1533L68.714 92.8528Z" fill="black"/>
<path d="M67.0209 95.2516C70.0197 95.2516 72.4507 92.8206 72.4507 89.8218C72.4507 86.8231 70.0197 84.3921 67.0209 84.3921C64.0222 84.3921 61.5912 86.8231 61.5912 89.8218C61.5912 92.8206 64.0222 95.2516 67.0209 95.2516Z" fill="#FFD5D8"/>
<path d="M62.9508 92.0488C64.1628 91.1125 65.7404 90.7982 67.2668 90.6614C68.2202 90.5759 69.1907 90.546 70.1056 90.2553C70.6318 90.0717 71.1423 89.8458 71.6319 89.5798C72.2861 89.2463 72.9616 88.8957 73.4083 88.3121C74.1052 87.4014 74.0838 86.1402 74.5199 85.0778C75.3087 83.1539 77.4849 82.1577 79.5499 81.899C80.7492 81.7473 82.0596 81.7473 83.0087 80.9969C83.4957 80.6082 83.8284 80.0588 83.9472 79.4471C83.9852 79.3149 83.973 79.1733 83.913 79.0495C83.8541 78.9692 83.7752 78.9059 83.6842 78.8656C82.4444 78.2051 80.9523 78.3761 79.5478 78.344C77.2626 78.2949 75.0351 77.6664 72.8248 77.0871C71.8884 76.8412 70.8773 76.6061 69.9752 76.9524C69.1201 77.2795 68.5408 78.0576 67.8546 78.6626C65.05 81.138 60.3941 80.7789 57.8994 83.5664C57.3222 84.2077 56.8883 85.0906 57.0999 85.9307C57.1875 86.2749 57.3757 86.5891 57.4376 86.9397C57.5595 87.6302 57.1662 88.2929 56.8327 88.9085C56.4992 89.5242 56.2085 90.2766 56.5184 90.903C56.9951 91.8607 58.4424 91.7901 59.197 92.549C59.5476 92.9017 59.7143 93.4041 60.0798 93.7461C60.6656 94.2848 61.5613 94.2421 62.3522 94.1737C62.7797 94.133 63.4788 93.9919 63.3569 93.419C63.2543 92.906 62.5767 92.6858 62.9508 92.0488Z" fill="#85596B"/>
<path d="M61.0546 95.2919C61.0546 95.2919 64.757 92.5129 67.0829 93.4235C69.4087 94.3342 70.0436 94.8344 71.525 94.2786C73.0064 93.7228 73.6392 95.4073 73.6392 95.4073L64.4129 98.0709L61.0546 95.2919Z" fill="#F8F9FA"/>
<path opacity="0.05" d="M56.0588 100.151C56.0588 100.151 57.7519 95.7796 59.7955 94.9331L56.0588 100.151Z" fill="black"/>
<path opacity="0.05" d="M53.8719 98.7406C53.8719 98.7406 55.565 94.369 57.6086 93.5225L53.8719 98.7406Z" fill="black"/>
<path opacity="0.05" d="M93.4961 99.7983C93.4961 99.7983 99.4816 96.9082 103.507 97.1903C107.532 97.4725 108.231 94.9351 108.231 94.9351" fill="black"/>
<path d="M67.6024 171.958C67.1043 171.494 66.6361 170.947 66.4908 170.282C66.3454 169.617 66.6297 168.818 67.2667 168.572C67.9786 168.298 68.7417 168.786 69.3189 169.292C69.8961 169.799 70.5588 170.361 71.3134 170.254C70.9247 169.902 70.634 169.455 70.4696 168.956C70.3051 168.458 70.2725 167.926 70.3749 167.411C70.4081 167.199 70.4982 166.999 70.6357 166.834C71.0312 166.407 71.7495 166.592 72.2219 166.926C73.7183 167.995 74.1458 170.032 74.1565 171.875C74.3083 171.21 74.18 170.517 74.1843 169.835C74.1886 169.153 74.3746 168.399 74.9496 168.031C75.3077 167.839 75.7104 167.744 76.1168 167.758C76.7944 167.732 77.549 167.8 78.0108 168.296C78.5858 168.912 78.4383 169.944 77.936 170.622C77.4336 171.3 76.6747 171.725 75.9757 172.193C75.4145 172.528 74.9359 172.984 74.5755 173.529C74.5328 173.605 74.4977 173.686 74.4708 173.769H70.2274C69.2747 173.286 68.3917 172.677 67.6024 171.958Z" fill="#6C63FF"/>
<path d="M165.622 152.9C165.291 152.631 165.051 152.267 164.932 151.857C164.842 151.442 165.019 150.947 165.415 150.788C165.857 150.619 166.332 150.925 166.697 151.237C167.063 151.549 167.467 151.902 167.937 151.836C167.695 151.617 167.515 151.339 167.412 151.029C167.31 150.719 167.29 150.388 167.354 150.068C167.374 149.936 167.43 149.812 167.516 149.709C167.762 149.446 168.209 149.559 168.504 149.767C169.44 150.425 169.701 151.69 169.707 152.843C169.801 152.43 169.722 151.998 169.724 151.575C169.726 151.152 169.842 150.681 170.201 150.455C170.424 150.335 170.675 150.276 170.928 150.284C171.355 150.269 171.817 150.312 172.106 150.619C172.463 151.002 172.371 151.643 172.059 152.065C171.747 152.486 171.274 152.751 170.84 153.041C170.491 153.25 170.194 153.534 169.97 153.873C169.944 153.92 169.922 153.969 169.906 154.021H167.253C166.661 153.722 166.113 153.346 165.622 152.9Z" fill="#6C63FF"/>
</g>
<defs>
<linearGradient id="paint0_linear_93_12" x1="89.6014" y1="131.44" x2="89.6014" y2="76.196" gradientUnits="userSpaceOnUse">
<stop stop-color="#808080" stop-opacity="0.25"/>
<stop offset="0.54" stop-color="#808080" stop-opacity="0.12"/>
<stop offset="1" stop-color="#808080" stop-opacity="0.1"/>
</linearGradient>
<clipPath id="clip0_93_12">
<rect width="225.999" height="178.613" fill="white"/>
</clipPath>
</defs>
</svg>
