<svg width="288" height="155" viewBox="0 0 288 155" fill="none" xmlns="http://www.w3.org/2000/svg">
<g clip-path="url(#clip0_34_71)">
<path d="M232.024 155H57.7546C55.9732 154.998 54.5297 153.776 54.5276 152.269V26.1691C54.5297 24.6616 55.9732 23.4401 57.7546 23.4385H232.024C233.805 23.4403 235.249 24.6618 235.251 26.1694V152.27C235.249 153.778 233.805 155 232.024 155ZM57.7546 24.5306C56.6858 24.5306 55.8195 25.2645 55.8184 26.1691V152.27C55.8184 153.174 56.6859 153.907 57.7549 153.908H232.024C233.093 153.908 233.959 153.174 233.96 152.27V26.1691C233.96 25.2648 233.093 24.5317 232.024 24.5306H57.7546Z" fill="#E6E6E6"/>
<path d="M129.43 74.6587L175.911 65.3647L176.92 90.8656L173.281 119.753L175.911 154.204H125.783L127.087 114.233C127.087 114.233 115.902 98.4515 122.491 82.5442L129.43 74.6587Z" fill="#6C63FF"/>
<path d="M233.073 14.1653C233.306 15.2357 233.302 16.3441 233.06 17.4125C232.818 18.4808 232.345 19.4832 231.674 20.349C231.003 21.2148 230.15 21.923 229.176 22.4236C228.202 22.9242 227.129 23.2051 226.035 23.2465L181.463 74.933L171.1 62.3566L218.171 15.5063C218.224 13.6626 218.95 11.9021 220.214 10.5585C221.478 9.21487 223.19 8.3815 225.028 8.21632C226.865 8.05114 228.698 8.56563 230.181 9.66228C231.665 10.7589 232.694 12.3615 233.074 14.1664L233.073 14.1653Z" fill="#FEB8B8"/>
<path d="M191.167 69.292C191.177 69.7747 191.083 70.254 190.892 70.6971C190.7 71.1403 190.415 71.5369 190.056 71.8598L177.523 83.1421C176.745 84.0891 175.789 84.8736 174.708 85.4509C173.627 86.0281 172.442 86.3868 171.223 86.5064C170.003 86.626 168.772 86.5042 167.599 86.148C166.427 85.7918 165.336 85.2081 164.389 84.4303C163.442 83.6525 162.658 82.6958 162.08 81.6148C161.503 80.5338 161.144 79.3497 161.025 78.1301C160.905 76.9104 161.027 75.6792 161.383 74.5067C161.739 73.3341 162.323 72.2432 163.101 71.2962L171.85 56.8182C172.1 56.4049 172.436 56.0503 172.835 55.7786C173.234 55.5068 173.687 55.3242 174.163 55.2433C174.639 55.1624 175.127 55.185 175.593 55.3097C176.06 55.4343 176.494 55.658 176.866 55.9656L189.948 66.7757C190.32 67.0831 190.622 67.4673 190.832 67.9019C191.043 68.3366 191.157 68.8116 191.167 69.2944L191.167 69.292Z" fill="#6C63FF"/>
<path d="M56.5491 135.628C56.4794 134.535 56.6503 133.44 57.0497 132.42C57.4491 131.399 58.0673 130.479 58.8607 129.724C59.6542 128.969 60.6036 128.397 61.6421 128.048C62.6806 127.699 63.783 127.582 64.8715 127.706L116.694 83.2939L125.052 97.2827L71.4842 136.539C71.1559 138.354 70.1732 139.986 68.7222 141.124C67.2712 142.263 65.4528 142.83 63.6117 142.718C61.7706 142.605 60.0347 141.822 58.733 140.515C57.4313 139.208 56.6542 137.469 56.5491 135.627V135.628Z" fill="#FEB8B8"/>
<path d="M151.03 52.6035C161.48 52.6035 169.952 44.1318 169.952 33.6814C169.952 23.231 161.48 14.7593 151.03 14.7593C140.58 14.7593 132.108 23.231 132.108 33.6814C132.108 44.1318 140.58 52.6035 151.03 52.6035Z" fill="#3F3D56"/>
<path d="M106.253 87.414C106.315 86.9351 106.479 86.4753 106.735 86.0659C106.991 85.6565 107.333 85.3071 107.736 85.0416L121.82 75.7675C122.726 74.9418 123.786 74.3028 124.939 73.8869C126.092 73.471 127.316 73.2864 128.541 73.3437C129.765 73.401 130.967 73.699 132.076 74.2207C133.185 74.7424 134.181 75.4776 135.006 76.3843C135.831 77.291 136.47 78.3513 136.885 79.5048C137.3 80.6583 137.484 81.8822 137.426 83.1068C137.368 84.3313 137.069 85.5324 136.546 86.6414C136.024 87.7504 135.288 88.7456 134.381 89.5701C134.354 89.5942 134.328 89.6181 134.301 89.6418L123.477 102.646C123.169 103.017 122.783 103.317 122.348 103.526C121.913 103.735 121.437 103.847 120.955 103.856C120.472 103.865 119.993 103.769 119.551 103.576C119.108 103.383 118.712 103.096 118.391 102.736L107.079 90.087C106.757 89.7272 106.516 89.3021 106.374 88.8408C106.231 88.3795 106.189 87.8928 106.252 87.414H106.253Z" fill="#6C63FF"/>
<path d="M149.24 62.7595C158.702 62.7595 166.372 55.0893 166.372 45.6276C166.372 36.1658 158.702 28.4956 149.24 28.4956C139.778 28.4956 132.108 36.1658 132.108 45.6276C132.108 55.0893 139.778 62.7595 149.24 62.7595Z" fill="#FEB8B8"/>
<path d="M160.907 0.000488281C159.477 2.04272 157.357 3.4997 154.938 4.10326C150.765 5.22092 154.904 11.4921 154.904 11.4921C154.904 11.4921 153.399 9.21161 155.57 6.79648C157.741 4.38135 161.235 2.73036 160.907 0.000488281Z" fill="#3F3D56"/>
<path d="M154.165 18.2692C157.077 18.2692 159.438 15.9083 159.438 12.9959C159.438 10.0836 157.077 7.72266 154.165 7.72266C151.253 7.72266 148.892 10.0836 148.892 12.9959C148.892 15.9083 151.253 18.2692 154.165 18.2692Z" fill="#3F3D56"/>
<path d="M162.045 17.4165C157.746 15.7904 150.588 14.966 146.906 15.5307L147.41 11.8428C150.951 13.6725 158.076 14.5325 162.55 13.7286L162.045 17.4165Z" fill="#6C63FF"/>
<path d="M152.112 18.1055C152.112 18.1055 146.725 27.0669 134.196 30.4218C121.668 33.7766 134.094 52.6031 134.094 52.6031C134.094 52.6031 129.576 45.7572 136.093 38.507C142.61 31.2568 153.098 26.3001 152.112 18.1055Z" fill="#3F3D56"/>
<path d="M154.154 18.1914C154.154 18.1914 159.33 30.5005 165.012 31.6644C170.694 32.8283 170.263 52.2779 161.377 55.1945C161.377 55.1945 167.858 43.7921 162.318 36.1451C156.779 28.4981 153.281 22.453 154.154 18.1914Z" fill="#3F3D56"/>
<path d="M287.408 154.204H3.05176e-05V154.735H287.408V154.204Z" fill="black"/>
<path d="M50.1666 141.579C50.1667 140.913 50.0356 140.254 49.7808 139.639C49.5261 139.024 49.1527 138.465 48.682 137.994C48.2112 137.523 47.6524 137.15 47.0373 136.895C46.4223 136.64 45.7631 136.509 45.0973 136.509H45.097V132.609H25.5975V151.908C25.5975 152.582 25.8651 153.228 26.3415 153.705C26.8179 154.181 27.464 154.449 28.1377 154.449H42.5568C43.2305 154.449 43.8766 154.181 44.353 153.705C44.8294 153.228 45.097 152.582 45.097 151.908V146.649C46.4416 146.649 47.7311 146.115 48.6818 145.164C49.6325 144.213 50.1666 142.924 50.1666 141.579ZM45.0971 144.699L45.097 138.459C45.9245 138.459 46.718 138.787 47.3031 139.373C47.8882 139.958 48.2169 140.751 48.2169 141.579C48.2169 142.406 47.8882 143.2 47.3032 143.785C46.7181 144.37 45.9245 144.699 45.0971 144.699Z" fill="#E6E6E6"/>
<path d="M258.556 135.913C262.374 140.011 262.572 146.033 262.572 146.033C262.572 146.033 256.578 145.412 252.76 141.315C248.942 137.218 248.745 131.195 248.745 131.195C248.745 131.195 254.738 131.816 258.556 135.913Z" fill="#E6E6E6"/>
<path d="M270.576 142.309C266.479 146.128 260.457 146.325 260.457 146.325C260.457 146.325 261.078 140.332 265.175 136.513C269.272 132.695 275.295 132.498 275.295 132.498C275.295 132.498 274.674 138.491 270.576 142.309Z" fill="#E6E6E6"/>
<path d="M269.558 154.47H254.488C254.199 154.47 253.916 154.389 253.67 154.235C253.425 154.082 253.228 153.863 253.102 153.603L249.821 146.858C249.706 146.623 249.653 146.363 249.667 146.101C249.681 145.84 249.761 145.587 249.9 145.366C250.038 145.144 250.231 144.961 250.46 144.835C250.688 144.708 250.946 144.642 251.207 144.642H272.839C273.101 144.642 273.358 144.708 273.587 144.835C273.815 144.961 274.008 145.144 274.147 145.366C274.286 145.587 274.365 145.84 274.379 146.101C274.393 146.363 274.34 146.623 274.226 146.858L270.945 153.602C270.818 153.863 270.621 154.082 270.376 154.235C270.131 154.389 269.848 154.47 269.558 154.47L269.558 154.47Z" fill="#E5E5E5"/>
</g>
<defs>
<clipPath id="clip0_34_71">
<rect width="287.408" height="155" fill="white"/>
</clipPath>
</defs>
</svg>
