<svg width="325" height="259" viewBox="0 0 325 259" fill="none" xmlns="http://www.w3.org/2000/svg">
<g clip-path="url(#clip0_58_2)">
<path d="M273.747 247.932C275.026 248.012 275.732 246.423 274.764 245.497L274.668 245.114C274.68 245.083 274.693 245.053 274.706 245.022C275.469 243.202 277.569 242.341 279.393 243.095C285.16 245.479 279.071 250.957 279.529 254.664C279.69 255.943 284.701 256.014 284.418 257.269C287.083 251.443 288.484 245.08 288.482 238.682C288.482 237.075 288.393 235.468 288.213 233.864C288.064 232.553 287.86 231.249 287.595 229.958C286.166 222.977 283.072 216.328 278.612 210.775C276.468 209.604 277.776 207.773 276.695 205.578C276.307 204.786 272.846 204.768 272.702 203.901C272.856 203.921 275.094 201.597 274.355 200.448C273.868 199.692 274.02 198.729 274.645 198.083C274.706 198.02 274.764 197.953 274.817 197.881C276.662 195.377 279.206 195.813 280.535 199.215C283.373 200.645 283.401 203.02 281.661 205.304C280.554 206.757 280.403 208.723 279.431 210.279C279.531 210.407 279.635 210.531 279.735 210.659C281.569 213.01 283.156 215.536 284.493 218.191C284.115 215.24 284.671 211.685 285.621 209.393C286.71 206.763 288.76 204.551 290.554 202.276C292.698 199.559 297.061 200.792 297.441 204.232C297.444 204.265 297.448 204.298 297.451 204.331C297.186 204.481 296.926 204.64 296.672 204.808C295.224 205.767 295.725 208.012 297.442 208.276L297.481 208.282C297.385 209.237 293.993 212.248 293.754 213.18C296.048 222.038 294.331 223.208 287.274 223.356L286.904 223.883C287.573 225.806 288.111 227.775 288.515 229.769C288.896 231.621 289.16 233.492 289.309 235.371C289.493 237.742 289.478 240.126 289.279 242.493L289.291 242.409C289.798 239.802 291.213 237.366 293.267 235.678C296.328 233.162 300.654 232.234 303.956 230.211C305.546 229.237 307.584 230.494 307.307 232.338L307.294 232.426C306.802 232.626 306.322 232.858 305.858 233.118C305.593 233.268 305.332 233.428 305.078 233.596C303.63 234.555 304.132 236.8 305.849 237.063L305.888 237.069C305.916 237.073 305.94 237.077 305.968 237.081C305.125 239.084 297.093 241.911 295.622 243.515C294.191 251.252 294.894 251.022 288.31 248.771H288.306C287.587 251.906 286.536 254.97 285.186 257.889L274.03 257.893C273.99 257.769 273.954 257.641 273.918 257.517C274.949 257.581 275.989 257.52 277.005 257.332C276.176 256.317 275.348 255.293 274.52 254.278C274.5 254.258 274.484 254.238 274.468 254.218L274.456 254.202L273.307 250.421C273.398 249.583 273.546 248.751 273.747 247.932Z" fill="#F2F2F2"/>
<path d="M155.853 257.802L57.1345 257.836C52.1751 257.838 47.7327 255.275 45.2515 250.981C44.0107 248.834 43.3902 246.478 43.3894 244.122C43.3886 241.766 44.0078 239.41 45.2467 237.262L94.5747 147.463C97.0532 143.167 101.494 140.602 106.453 140.6C111.413 140.598 115.855 143.161 118.337 147.455L167.733 237.231C168.97 239.373 169.589 241.726 169.59 244.08C169.59 246.435 168.971 248.791 167.731 250.939C165.253 255.235 160.813 257.8 155.853 257.802ZM44.6303 244.121C44.6301 246.265 55.5234 241.644 56.652 243.597C58.9093 247.504 52.6221 256.6 57.1341 256.598C57.1341 256.598 164.404 254.228 166.659 250.32C167.786 248.366 168.35 246.222 168.349 244.079C168.348 241.936 167.783 239.793 166.654 237.839L117.258 148.064C115.007 144.168 110.966 141.837 106.454 141.838C101.944 141.84 44.6305 241.976 44.6303 244.121Z" fill="#3F3D56"/>
<path d="M156.949 256.564C155.712 259.041 213.667 258.28 214.352 258.279C214.352 258.279 230.641 257.919 230.984 257.326C231.155 257.029 231.241 256.704 231.24 256.378C231.24 256.053 231.155 255.727 230.983 255.431L223.482 241.798C223.14 241.206 222.527 240.852 221.841 240.853C221.813 240.853 221.771 240.878 221.716 240.926C211.71 249.868 199.378 255.78 185.96 255.979C171.691 256.192 157.028 256.407 156.949 256.564Z" fill="#3F3D56"/>
<path d="M4.63399e-08 258.212C0.000142438 258.62 0.328391 258.948 0.737011 258.948L324.083 258.836C324.491 258.836 324.819 258.508 324.819 258.099C324.819 257.691 324.491 257.363 324.082 257.363L0.736504 257.475C0.327884 257.475 -0.000142345 257.803 4.63399e-08 258.212Z" fill="#CCCCCC"/>
<path d="M250.038 254.636L244.438 254.637L241.767 233.04L250.031 233.038L250.038 254.636Z" fill="#A0616A"/>
<path d="M230.853 254.515C230.679 254.809 230.587 255.757 230.587 256.098C230.588 257.148 231.439 257.999 232.488 257.998L249.829 257.992C250.545 257.992 251.126 257.411 251.125 256.695L251.125 255.973C251.125 255.973 251.982 253.803 250.215 251.129C250.215 251.129 248.021 253.224 244.74 249.945L243.772 248.193L236.772 253.316L232.891 253.795C232.042 253.9 231.289 253.78 230.853 254.515Z" fill="#2F2E41"/>
<path d="M228.567 236.163L223.263 237.958L213.815 218.354L221.644 215.705L228.567 236.163Z" fill="#A0616A"/>
<path d="M210.354 242.194C210.283 242.528 210.5 243.455 210.61 243.779C210.946 244.773 212.025 245.306 213.019 244.97L229.445 239.41C230.123 239.18 230.487 238.445 230.257 237.766L230.026 237.082C230.026 237.082 230.143 234.752 227.612 232.785C227.612 232.785 226.204 235.472 222.046 233.417L220.568 232.067L215.578 239.162L212.055 240.859C211.284 241.23 210.532 241.357 210.354 242.194Z" fill="#2F2E41"/>
<path d="M219.918 110.874L209.057 146.843L196.235 179.198L216.534 225.403L224.061 222.055L215.054 179.61L233.942 150.808L242.755 240.72L250.283 240.299L260.491 131.77L261.947 108.141L219.918 110.874Z" fill="#2F2E41"/>
<path d="M252.72 31.1929L236.829 34.1258L235.577 41.2358L225.959 45.8395L220.959 98.1174C220.959 98.1174 212.598 108.994 219.291 112.337L261.947 108.14C261.947 108.14 264.035 100.408 261.944 99.6739C259.853 98.9403 259.846 80.47 259.846 80.47L269.452 42.4787L255.231 37.4652L252.72 31.1929Z" fill="#E6E6E6"/>
<path d="M243.347 31.0557C250.434 31.0557 256.179 25.3105 256.179 18.2234C256.179 11.1363 250.434 5.39111 243.347 5.39111C236.26 5.39111 230.514 11.1363 230.514 18.2234C230.514 25.3105 236.26 31.0557 243.347 31.0557Z" fill="#A0616A"/>
<path d="M251.844 20.1281C250.82 20.6887 251.792 23.3651 251.152 23.5965C250.412 23.864 247.715 20.7938 247.682 17.355C247.671 16.3142 247.911 15.8144 247.681 14.5804C247.379 12.9663 246.455 11.0624 245.599 11.113C245.091 11.1429 244.596 11.8604 244.559 12.5006C244.507 13.3979 245.378 13.7511 245.253 14.2345C245.014 15.1551 241.354 15.7907 240.051 14.2363C239.029 13.0176 239.812 10.8779 239.356 10.7683C239.019 10.6876 238.658 11.8656 237.276 13.1968C236.755 13.6983 235.981 14.4442 235.542 14.2378C234.908 13.9396 235.369 11.8381 235.194 11.8102C235.05 11.7871 234.959 13.2643 234.155 14.5851C233.121 16.2821 230.989 17.59 229.994 17.0143C229.384 16.6616 229.336 15.6795 229.299 14.9336C229.222 13.3623 226.939 9.74784 227.529 8.06686C228.732 4.64557 230.792 7.05726 231.724 5.91549C232.985 4.36981 234.117 5.20085 236.232 3.4862C238.297 1.81116 238.315 0.127596 239.699 0.0168034C240.944 -0.0829695 241.387 1.24588 242.82 1.05618C244.034 0.895482 244.299 -0.135178 245.248 0.0148781C246.117 0.152255 246.174 1.06021 247.329 1.40144C248.067 1.61928 248.229 1.30397 249.063 1.40083C250.8 1.60239 251.967 3.18433 252.185 3.48067C253.028 4.62306 252.701 5.1048 253.574 6.25474C254.326 7.2464 255.994 6.82529 256.621 7.32058C258.67 8.93894 259.55 11.9235 259.568 15.3252C259.58 17.7044 259.27 18.9066 258.578 21.9097C258.052 24.19 255.617 27.1369 254.275 28.4509C253.915 28.8037 252.905 29.7925 252.194 29.4921C251.521 29.2075 251.501 27.9273 251.5 27.7583C251.497 27.1769 251.652 26.4576 252.886 24.6364C254.183 22.7234 254.698 22.505 254.619 21.8612C254.481 20.7232 252.661 19.6813 251.844 20.1281Z" fill="#2F2E41"/>
<path d="M207.083 139.766C206.684 143.111 208.085 146.028 210.214 146.282C212.342 146.536 214.391 144.031 214.791 140.686C214.966 139.222 214.795 137.84 214.37 136.727L215.885 122.533L209.209 121.964L208.424 136.017C207.749 136.998 207.258 138.302 207.083 139.766Z" fill="#A0616A"/>
<path d="M226.273 45.5015C226.273 45.5015 222.814 45.5507 220.524 50.0232C219.307 52.3999 212.796 96.8437 212.796 96.8437L206.799 133.252L217.015 133.303L224.976 98.824L231.673 78.8267L226.273 45.5015Z" fill="#E6E6E6"/>
<path d="M255.023 134.423C254.044 137.647 254.914 140.764 256.965 141.387C259.016 142.009 261.472 139.901 262.451 136.678C262.879 135.267 262.953 133.876 262.729 132.706L266.703 118.996L260.229 117.268L256.999 130.967C256.162 131.815 255.451 133.012 255.023 134.423Z" fill="#A0616A"/>
<path d="M262.133 43.1087C262.133 43.1087 267.151 39.3431 271.335 45.1966C275.519 51.0501 277.208 99.1436 277.208 99.1436L265.509 128.84L256.725 125.916L265.077 89.5289L250.43 61.9322L262.133 43.1087Z" fill="#E6E6E6"/>
<path d="M135.259 237.999C160.219 237.999 180.453 217.765 180.453 192.805C180.453 167.845 160.219 147.611 135.259 147.611C110.299 147.611 90.0654 167.845 90.0654 192.805C90.0654 217.765 110.299 237.999 135.259 237.999Z" fill="#6C63FF"/>
<path d="M135.267 220.509C137.559 220.509 139.417 218.651 139.417 216.36C139.417 214.068 137.559 212.21 135.267 212.21C132.975 212.21 131.118 214.068 131.118 216.36C131.118 218.651 132.975 220.509 135.267 220.509Z" fill="white"/>
<path d="M135.249 165.1C134.868 167.633 135.551 168.163 135.555 179.082C135.559 190.002 137.825 204.642 135.263 204.643C132.702 204.644 131.765 174.43 122.871 171.755C112.414 168.611 136.483 156.901 135.249 165.1Z" fill="white"/>
<path d="M74.6025 215.879L70.5194 224.506C75.4556 220.966 83.1657 217.915 89.3011 216.281C83.5844 213.52 76.5892 209.067 72.4101 204.659L74.7586 213.775C47.2251 208.167 27.4529 187.045 27.4445 162.849L26.45 162.507C26.4587 187.78 45.9574 210.153 74.6025 215.879Z" fill="#3F3D56"/>
</g>
<defs>
<clipPath id="clip0_58_2">
<rect width="324.819" height="258.948" fill="white"/>
</clipPath>
</defs>
</svg>
