<svg width="264" height="193" viewBox="0 0 264 193" fill="none" xmlns="http://www.w3.org/2000/svg">
<g clip-path="url(#clip0_62_89)">
<path d="M25.66 186.869C26.8212 188.715 28.2606 190.294 29.9064 191.525C30.2564 191.787 30.6157 192.034 30.9813 192.263H39.5835C39.4806 192.019 39.3805 191.772 39.2836 191.525C36.6164 184.884 35.78 177.423 36.892 170.192C38.004 162.961 41.0085 156.323 45.4831 151.21C40.2835 153.106 35.4778 156.8 32.3343 162.04C30.8069 164.591 29.7207 167.473 29.1377 170.52C28.6182 164.426 29.4439 158.277 31.5343 152.671C27.3129 156.723 24.0256 162.272 22.7727 168.518C21.5197 174.767 22.4289 181.703 25.66 186.869Z" fill="#F0F0F0"/>
<path d="M261.964 103.604H203.48C203.119 103.603 202.773 103.434 202.518 103.133C202.263 102.832 202.12 102.424 202.119 101.999V59.308C202.12 58.8825 202.263 58.4746 202.518 58.1737C202.773 57.8729 203.119 57.7036 203.48 57.7031H261.964C262.325 57.7036 262.671 57.8729 262.926 58.1737C263.181 58.4746 263.324 58.8825 263.324 59.308V101.999C263.324 102.424 263.181 102.832 262.926 103.133C262.671 103.434 262.325 103.603 261.964 103.604Z" fill="white"/>
<path d="M261.964 103.604H203.48C203.119 103.603 202.773 103.434 202.518 103.133C202.263 102.832 202.12 102.424 202.119 101.999V59.308C202.12 58.8825 202.263 58.4746 202.518 58.1737C202.773 57.8729 203.119 57.7036 203.48 57.7031H261.964C262.325 57.7036 262.671 57.8729 262.926 58.1737C263.181 58.4746 263.324 58.8825 263.324 59.308V101.999C263.324 102.424 263.181 102.832 262.926 103.133C262.671 103.434 262.325 103.603 261.964 103.604ZM203.48 58.3451C203.263 58.3454 203.056 58.4469 202.903 58.6274C202.75 58.808 202.664 59.0527 202.663 59.308V101.999C202.664 102.254 202.75 102.499 202.903 102.679C203.056 102.86 203.263 102.961 203.48 102.962H261.964C262.181 102.961 262.388 102.86 262.541 102.679C262.694 102.499 262.78 102.254 262.78 101.999V59.308C262.78 59.0527 262.694 58.808 262.541 58.6274C262.388 58.4469 262.181 58.3454 261.964 58.3451H203.48Z" fill="#3F3D56"/>
<path d="M250.403 71.9606H215.041C214.716 71.9606 214.404 71.8085 214.175 71.5376C213.945 71.2667 213.816 70.8993 213.816 70.5162C213.816 70.1331 213.945 69.7657 214.175 69.4948C214.404 69.224 214.716 69.0718 215.041 69.0718H250.403C250.728 69.0718 251.039 69.224 251.269 69.4948C251.499 69.7657 251.628 70.1331 251.628 70.5162C251.628 70.8993 251.499 71.2667 251.269 71.5376C251.039 71.8085 250.728 71.9606 250.403 71.9606Z" fill="#CCCCCC"/>
<path d="M250.403 81.9113H215.041C214.716 81.9113 214.404 81.7591 214.175 81.4883C213.945 81.2174 213.816 80.85 213.816 80.4669C213.816 80.0838 213.945 79.7164 214.175 79.4455C214.404 79.1746 214.716 79.0225 215.041 79.0225H250.403C250.728 79.0225 251.039 79.1746 251.269 79.4455C251.499 79.7164 251.628 80.0838 251.628 80.4669C251.628 80.85 251.499 81.2174 251.269 81.4883C251.039 81.7591 250.728 81.9113 250.403 81.9113Z" fill="#CCCCCC"/>
<path d="M247.253 97.6882C249.669 97.6882 251.627 95.3771 251.627 92.5262C251.627 89.6753 249.669 87.3643 247.253 87.3643C244.837 87.3643 242.878 89.6753 242.878 92.5262C242.878 95.3771 244.837 97.6882 247.253 97.6882Z" fill="#6C63FF"/>
<path d="M247.373 90.0938V89.6021H247.496V90.0939C247.671 90.1028 247.842 90.1523 248.001 90.2394C248.116 90.3032 248.215 90.4007 248.289 90.5226C248.357 90.6354 248.393 90.7706 248.393 90.9092C248.396 91.0105 248.367 91.1094 248.312 91.1875C248.289 91.223 248.258 91.2517 248.224 91.2713C248.189 91.291 248.152 91.301 248.113 91.3007C248.085 91.3014 248.056 91.2951 248.03 91.2823C248.004 91.2695 247.98 91.2504 247.96 91.2263C247.939 91.2023 247.923 91.1735 247.912 91.1418C247.901 91.1101 247.896 91.0761 247.897 91.0419C247.897 90.994 247.905 90.9466 247.921 90.9027L247.971 90.7798C247.988 90.7284 247.997 90.6734 247.995 90.618C247.997 90.5323 247.974 90.4485 247.93 90.3803C247.882 90.3087 247.817 90.2552 247.743 90.2265C247.663 90.1955 247.58 90.176 247.496 90.1682V91.9381L247.524 91.9575C247.782 92.1185 248.016 92.3271 248.218 92.5755C248.307 92.7002 248.378 92.8419 248.427 92.9945C248.477 93.1424 248.502 93.2998 248.503 93.4588C248.505 93.6645 248.459 93.867 248.371 94.0444C248.285 94.2175 248.158 94.3579 248.006 94.4488C247.846 94.5415 247.674 94.6006 247.496 94.6235V95.1509H247.373V94.6333C247.194 94.6316 247.017 94.5887 246.852 94.5071C246.687 94.4348 246.542 94.3119 246.431 94.1512C246.334 94.007 246.281 93.8277 246.282 93.6432C246.278 93.5136 246.312 93.3864 246.378 93.2824C246.404 93.2375 246.438 93.2007 246.479 93.1751C246.52 93.1495 246.565 93.1358 246.611 93.1352C246.638 93.1341 246.666 93.1396 246.692 93.1516C246.717 93.1635 246.741 93.1815 246.76 93.2045C246.78 93.2275 246.795 93.255 246.805 93.2853C246.815 93.3156 246.82 93.348 246.819 93.3806C246.81 93.4802 246.774 93.5739 246.718 93.6485C246.688 93.6947 246.663 93.7445 246.642 93.797C246.628 93.838 246.621 93.8819 246.622 93.9261C246.622 94.0441 246.657 94.1585 246.719 94.2505C246.787 94.3536 246.878 94.4333 246.981 94.4813C247.099 94.5355 247.225 94.5619 247.351 94.5588H247.373V92.4461L247.217 92.3393C247.069 92.2379 246.956 92.1538 246.878 92.0869C246.802 92.022 246.732 91.9483 246.668 91.8669C246.511 91.6689 246.423 91.4072 246.424 91.1357C246.424 90.9666 246.459 90.8001 246.529 90.652C246.596 90.5042 246.695 90.3798 246.816 90.2912C246.985 90.1713 247.176 90.1034 247.373 90.0938ZM247.373 90.165C247.267 90.1689 247.162 90.1963 247.065 90.2458C246.967 90.3028 246.887 90.3942 246.835 90.5074C246.776 90.6304 246.746 90.7697 246.748 90.911C246.747 91.0833 246.792 91.2516 246.876 91.3921C246.921 91.4686 246.975 91.5371 247.036 91.5957C247.135 91.6828 247.238 91.7626 247.346 91.8346L247.373 91.854V90.165ZM247.496 94.5524C247.567 94.5454 247.637 94.528 247.704 94.5006C247.758 94.4758 247.809 94.4408 247.854 94.3971C247.939 94.312 248.004 94.2037 248.045 94.0817C248.093 93.9469 248.117 93.8022 248.116 93.6561C248.105 93.4218 248.042 93.1949 247.933 92.9984C247.825 92.8018 247.674 92.6426 247.496 92.5367V94.5524Z" fill="white"/>
<path d="M222.124 75.0289H163.64C163.279 75.0285 162.933 74.8592 162.678 74.5583C162.423 74.2575 162.28 73.8495 162.28 73.424V30.7333C162.28 30.3078 162.423 29.8999 162.678 29.599C162.933 29.2982 163.279 29.1289 163.64 29.1284H222.124C222.485 29.1289 222.831 29.2982 223.086 29.599C223.341 29.8999 223.484 30.3078 223.485 30.7333V73.424C223.484 73.8495 223.341 74.2575 223.086 74.5583C222.831 74.8592 222.485 75.0285 222.124 75.0289Z" fill="white"/>
<path d="M222.124 75.0289H163.64C163.279 75.0285 162.933 74.8592 162.678 74.5583C162.423 74.2575 162.28 73.8495 162.28 73.424V30.7333C162.28 30.3078 162.423 29.8999 162.678 29.599C162.933 29.2982 163.279 29.1289 163.64 29.1284H222.124C222.485 29.1289 222.831 29.2982 223.086 29.599C223.341 29.8999 223.484 30.3078 223.485 30.7333V73.424C223.484 73.8495 223.341 74.2575 223.086 74.5583C222.831 74.8592 222.485 75.0285 222.124 75.0289ZM163.64 29.7704C163.423 29.7707 163.216 29.8722 163.063 30.0527C162.91 30.2333 162.824 30.478 162.824 30.7333V73.424C162.824 73.6793 162.91 73.9241 163.063 74.1046C163.216 74.2852 163.423 74.3867 163.64 74.387H222.124C222.341 74.3867 222.548 74.2852 222.701 74.1046C222.854 73.9241 222.94 73.6793 222.941 73.424V30.7333C222.94 30.478 222.854 30.2333 222.701 30.0527C222.548 29.8722 222.341 29.7707 222.124 29.7704H163.64Z" fill="#3F3D56"/>
<path d="M210.563 43.3859H175.2C174.876 43.3859 174.564 43.2337 174.335 42.9629C174.105 42.692 173.976 42.3246 173.976 41.9415C173.976 41.5584 174.105 41.191 174.335 40.9201C174.564 40.6492 174.876 40.4971 175.2 40.4971H210.563C210.888 40.4971 211.199 40.6492 211.429 40.9201C211.658 41.191 211.787 41.5584 211.787 41.9415C211.787 42.3246 211.658 42.692 211.429 42.9629C211.199 43.2337 210.888 43.3859 210.563 43.3859Z" fill="#CCCCCC"/>
<path d="M210.563 53.3361H175.2C174.876 53.3361 174.564 53.1839 174.335 52.9131C174.105 52.6422 173.976 52.2748 173.976 51.8917C173.976 51.5086 174.105 51.1412 174.335 50.8703C174.564 50.5995 174.876 50.4473 175.2 50.4473H210.563C210.888 50.4473 211.199 50.5995 211.429 50.8703C211.658 51.1412 211.787 51.5086 211.787 51.8917C211.787 52.2748 211.658 52.6422 211.429 52.9131C211.199 53.1839 210.888 53.3361 210.563 53.3361Z" fill="#CCCCCC"/>
<path d="M207.413 69.113C209.829 69.113 211.788 66.8019 211.788 63.951C211.788 61.1002 209.829 58.7891 207.413 58.7891C204.997 58.7891 203.038 61.1002 203.038 63.951C203.038 66.8019 204.997 69.113 207.413 69.113Z" fill="#6C63FF"/>
<path d="M207.533 61.5191V61.0273H207.656V61.5191C207.831 61.5281 208.002 61.5776 208.161 61.6647C208.276 61.7285 208.375 61.826 208.449 61.9479C208.517 62.0607 208.553 62.1959 208.553 62.3345C208.556 62.4358 208.527 62.5347 208.472 62.6128C208.448 62.6483 208.418 62.677 208.384 62.6966C208.349 62.7163 208.312 62.7263 208.273 62.726C208.245 62.7266 208.216 62.7204 208.19 62.7076C208.164 62.6948 208.14 62.6757 208.12 62.6516C208.099 62.6276 208.083 62.5988 208.072 62.5671C208.061 62.5354 208.056 62.5014 208.057 62.4672C208.057 62.4193 208.065 62.3719 208.081 62.328L208.131 62.2051C208.148 62.1537 208.157 62.0986 208.155 62.0433C208.157 61.9576 208.134 61.8738 208.09 61.8055C208.041 61.734 207.977 61.6805 207.903 61.6518C207.823 61.6208 207.74 61.6013 207.656 61.5935V63.3634L207.684 63.3828C207.941 63.5438 208.176 63.7524 208.378 64.0008C208.467 64.1255 208.538 64.2672 208.587 64.4198C208.636 64.5677 208.662 64.7251 208.663 64.884C208.665 65.0898 208.619 65.2923 208.531 65.4697C208.445 65.6428 208.318 65.7832 208.166 65.8741C208.006 65.9668 207.834 66.0259 207.656 66.0488V66.5762H207.533V66.0585C207.354 66.0569 207.177 66.014 207.012 65.9324C206.847 65.8601 206.702 65.7372 206.591 65.5765C206.493 65.4323 206.441 65.253 206.442 65.0685C206.438 64.9389 206.472 64.8117 206.538 64.7077C206.564 64.6628 206.598 64.626 206.639 64.6004C206.679 64.5748 206.725 64.5611 206.771 64.5605C206.798 64.5594 206.826 64.5649 206.851 64.5768C206.877 64.5888 206.901 64.6068 206.92 64.6298C206.94 64.6528 206.955 64.6803 206.965 64.7106C206.975 64.7409 206.98 64.7733 206.979 64.8059C206.97 64.9055 206.934 64.9992 206.878 65.0738C206.848 65.12 206.823 65.1698 206.802 65.2223C206.788 65.2633 206.781 65.3072 206.782 65.3514C206.782 65.4694 206.816 65.5838 206.879 65.6758C206.947 65.7789 207.038 65.8586 207.141 65.9066C207.259 65.9608 207.385 65.9872 207.511 65.9841H207.533V63.8713L207.377 63.7646C207.229 63.6632 207.116 63.5791 207.038 63.5122C206.962 63.4472 206.892 63.3735 206.828 63.2922C206.671 63.0942 206.583 62.8325 206.584 62.561C206.583 62.3919 206.619 62.2254 206.688 62.0773C206.756 61.9295 206.855 61.8051 206.976 61.7165C207.145 61.5966 207.336 61.5287 207.533 61.5191ZM207.533 61.5903C207.427 61.5942 207.322 61.6216 207.224 61.6711C207.127 61.7281 207.047 61.8195 206.995 61.9326C206.936 62.0557 206.906 62.195 206.908 62.3363C206.907 62.5086 206.951 62.6769 207.036 62.8174C207.081 62.8939 207.135 62.9624 207.196 63.021C207.295 63.1081 207.398 63.1879 207.506 63.2599L207.533 63.2793V61.5903ZM207.656 65.9777C207.727 65.9707 207.797 65.9533 207.864 65.9259C207.918 65.9011 207.969 65.8661 208.014 65.8224C208.099 65.7373 208.164 65.629 208.205 65.507C208.253 65.3722 208.277 65.2275 208.276 65.0814C208.265 64.847 208.202 64.6202 208.093 64.4237C207.985 64.2271 207.834 64.0679 207.656 63.9619V65.9777Z" fill="white"/>
<path d="M100.886 68.6587C100.377 68.6152 99.8653 68.7041 99.3881 68.9191C98.9108 69.1341 98.4793 69.47 98.1239 69.903C97.7686 70.3361 97.498 70.8558 97.3313 71.4256C97.1646 71.9954 97.1058 72.6014 97.159 73.2009L85.9155 79.4207L91.4187 83.3968L101.252 76.8808C102.1 76.7086 102.864 76.1754 103.401 75.3823C103.938 74.5893 104.209 73.5915 104.164 72.578C104.119 71.5645 103.76 70.6058 103.156 69.8834C102.552 69.1611 101.744 68.7253 100.886 68.6587Z" fill="#FFB6B6"/>
<path d="M54.3602 188.327L58.2433 188.326L60.0907 170.653L54.3596 170.654L54.3602 188.327Z" fill="#FFB6B6"/>
<path d="M53.3696 186.83L61.0167 186.83H61.017C62.3094 186.83 63.5489 187.436 64.4628 188.514C65.3767 189.593 65.8902 191.055 65.8903 192.58V192.767L53.3699 192.768L53.3696 186.83Z" fill="#2F2E41"/>
<path d="M74.1737 188.327L78.0568 188.326L79.9041 170.653L74.1731 170.654L74.1737 188.327Z" fill="#FFB6B6"/>
<path d="M73.1833 186.83L80.8304 186.83H80.8307C82.1232 186.83 83.3627 187.436 84.2766 188.514C85.1905 189.593 85.7039 191.055 85.704 192.58V192.767L73.1836 192.768L73.1833 186.83Z" fill="#2F2E41"/>
<path d="M76.7676 96.6611L78.7384 101.668L82.2915 146.443L79.5296 184.929H73.0698L65.4474 124.267L61.8671 183.531L53.1511 183.116L51.4778 102.767L76.7676 96.6611Z" fill="#2F2E41"/>
<path d="M45.3607 55.3416L53.5316 51.4189L65.0646 52.1822L75.3176 56.5911L78.7384 101.668C69.8185 107.415 60.783 108.984 51.5903 104.874L43.0586 75.5148L45.3607 55.3416Z" fill="#E4E4E4"/>
<path d="M72.1276 57.7826L75.7536 56.5909C75.7536 56.5909 78.4961 54.4867 79.3985 60.7417C80.3008 66.9967 84.9438 76.726 84.9438 76.726L92.8921 71.7276L96.572 81.2105L84.0198 90.1825L70.8013 74.4664L72.1276 57.7826Z" fill="#E4E4E4"/>
<path d="M52.2386 43.0675C51.7982 41.8885 51.559 40.6187 51.5346 39.3306C51.5101 38.0425 51.7009 36.7614 52.0961 35.5603C52.4912 34.3592 53.083 33.2617 53.8376 32.3305C54.5922 31.3993 55.4948 30.6526 56.494 30.133C57.4931 29.6134 58.5693 29.3311 59.6609 29.3023C60.7525 29.2734 61.8382 29.4986 62.8561 29.9648C63.874 30.4311 64.804 31.1294 65.5932 32.0198C66.3824 32.9102 67.0152 33.9753 67.4555 35.1543L67.5031 35.2841C68.378 37.6731 68.4127 40.3744 67.5997 42.7937C67.1972 43.9916 66.5986 45.0842 65.8382 46.0091C65.0778 46.9341 64.1705 47.6733 63.168 48.1844C61.1434 49.2168 58.8541 49.2578 56.8039 48.2985C54.7536 47.3392 53.1103 45.4581 52.2354 43.0691L52.2386 43.0675Z" fill="#FFB6B6"/>
<path d="M63.5267 34.0879C65.2555 34.458 67.931 35.7424 69.4159 34.2356C68.6826 33.2246 67.7601 32.4284 66.7214 31.9101C66.5168 31.83 66.3274 31.7037 66.1637 31.5381C65.6575 30.9345 66.0486 29.8943 65.817 29.0781C65.7045 28.7798 65.5348 28.5165 65.3213 28.3088C65.1079 28.1011 64.8565 27.9548 64.5869 27.8813C64.0715 27.6993 63.5315 27.6698 63.0252 27.4492C61.8272 26.9178 60.9754 25.3973 59.7474 24.9842C58.6774 24.619 57.6008 25.1865 56.6774 25.8489C55.754 26.5113 54.8405 27.2971 53.7602 27.4228C52.9529 27.5097 52.4419 29.0766 51.6314 29.1225C49.9331 29.22 50.0274 27.8991 49.9018 30.0044C49.8293 31.2608 48.308 33.7601 48.3327 35.0273C48.3578 35.8577 48.2333 36.6801 48.2534 37.513C48.2991 39.0994 48.8383 40.6104 49.7681 41.7575C50.5413 42.6957 51.547 43.3285 52.1979 44.398C52.5363 44.9657 52.7711 45.6285 53.1652 46.1422C53.5592 46.6559 54.2265 46.9651 54.6663 46.5983C55.106 46.2316 55.1142 45.4378 55.3324 44.8338C55.4662 44.4635 55.6949 44.1519 55.9863 43.9426C56.2777 43.7332 56.6173 43.6367 56.9575 43.6665C57.3109 43.721 57.6444 43.8908 57.9204 44.1567C58.1965 44.4226 58.4042 44.7742 58.5202 45.1718C58.3142 43.837 57.7714 42.5864 57.5651 41.2506C57.3588 39.9148 57.6276 38.3191 58.6024 37.7976C59.0209 37.5677 59.5863 37.506 59.7545 36.9765C59.8575 36.6575 59.7633 36.2806 59.803 35.9357C60.0172 34.2451 62.3994 33.8269 63.5267 34.0879Z" fill="#2F2E41"/>
<path d="M52.57 104.353C52.4955 103.757 52.3111 103.187 52.0298 102.684C51.7484 102.181 51.377 101.757 50.9417 101.441C50.5064 101.126 50.0178 100.927 49.5102 100.858C49.0027 100.79 48.4886 100.853 48.0042 101.045L40.4209 89.4414L38.3245 96.6427L45.847 106.557C46.1733 107.496 46.7802 108.261 47.5526 108.708C48.3251 109.154 49.2094 109.251 50.0381 108.979C50.8668 108.707 51.5823 108.086 52.0489 107.234C52.5156 106.381 52.701 105.356 52.57 104.353Z" fill="#FFB6B6"/>
<path d="M47.98 57.53L45.3607 55.3415C45.3607 55.3415 39.3685 54.9365 38.4968 60.7418L27.5093 82.07L41.1324 104.247L47.7373 96.043L39.4034 84.5511L46.4006 69.3913L47.98 57.53Z" fill="#E4E4E4"/>
<path d="M111.794 60.9097H111.656V56.4678C111.656 56.1302 111.6 55.7959 111.491 55.484C111.381 55.1721 111.221 54.8887 111.018 54.6499C110.816 54.4112 110.576 54.2219 110.312 54.0927C110.047 53.9635 109.764 53.897 109.478 53.897H101.502C101.216 53.897 100.933 53.9635 100.669 54.0927C100.404 54.2219 100.164 54.4112 99.9619 54.6499C99.7595 54.8887 99.5991 55.1721 99.4896 55.484C99.3801 55.7959 99.3237 56.1302 99.3237 56.4678V80.8364C99.3237 81.174 99.3801 81.5083 99.4896 81.8202C99.5991 82.1321 99.7595 82.4155 99.9619 82.6542C100.164 82.893 100.404 83.0823 100.669 83.2115C100.933 83.3407 101.216 83.4072 101.502 83.4072H109.478C109.764 83.4072 110.047 83.3407 110.311 83.2115C110.576 83.0823 110.816 82.893 111.018 82.6542C111.221 82.4155 111.381 82.1321 111.491 81.8202C111.6 81.5083 111.656 81.174 111.656 80.8364V64.0715H111.794V60.9097Z" fill="#3F3D56"/>
<path d="M109.566 54.5659H108.525C108.573 54.7044 108.591 54.8547 108.578 55.0035C108.565 55.1523 108.521 55.295 108.451 55.4192C108.38 55.5433 108.284 55.645 108.173 55.7154C108.061 55.7857 107.936 55.8225 107.809 55.8225H103.24C103.113 55.8225 102.989 55.7857 102.877 55.7154C102.765 55.645 102.669 55.5433 102.599 55.4192C102.528 55.295 102.484 55.1523 102.471 55.0035C102.458 54.8547 102.477 54.7044 102.524 54.5659H101.552C101.121 54.5659 100.707 54.7682 100.402 55.1282C100.096 55.4883 99.925 55.9766 99.925 56.4858V80.8186C99.925 81.3278 100.096 81.8161 100.402 82.1762C100.707 82.5362 101.121 82.7385 101.552 82.7385H109.566C109.997 82.7385 110.411 82.5362 110.716 82.1762C111.021 81.8161 111.193 81.3278 111.193 80.8186V56.4858C111.193 55.9766 111.021 55.4883 110.716 55.1282C110.411 54.7682 109.997 54.5659 109.566 54.5659Z" fill="#6C63FF"/>
<path d="M181.503 45.9005H123.018C122.657 45.9 122.312 45.7308 122.057 45.4299C121.802 45.129 121.658 44.7211 121.658 44.2956V1.60492C121.658 1.17942 121.802 0.77148 122.057 0.470606C122.312 0.169732 122.657 0.000486956 123.018 0H181.503C181.863 0.000486958 182.209 0.169732 182.464 0.470606C182.719 0.77148 182.863 1.17942 182.863 1.60492V44.2956C182.863 44.7211 182.719 45.129 182.464 45.4299C182.209 45.7308 181.863 45.9 181.503 45.9005Z" fill="white"/>
<path d="M181.503 45.9005H123.018C122.657 45.9 122.312 45.7308 122.057 45.4299C121.802 45.129 121.658 44.7211 121.658 44.2956V1.60492C121.658 1.17942 121.802 0.77148 122.057 0.470606C122.312 0.169732 122.657 0.000486956 123.018 0H181.503C181.863 0.000486958 182.209 0.169732 182.464 0.470606C182.719 0.77148 182.863 1.17942 182.863 1.60492V44.2956C182.863 44.7211 182.719 45.129 182.464 45.4299C182.209 45.7308 181.863 45.9 181.503 45.9005ZM123.018 0.641966C122.802 0.642245 122.594 0.743789 122.441 0.924317C122.288 1.10484 122.202 1.34961 122.202 1.60492V44.2956C122.202 44.5509 122.288 44.7957 122.441 44.9762C122.594 45.1567 122.802 45.2583 123.018 45.2585H181.503C181.719 45.2583 181.927 45.1567 182.08 44.9762C182.233 44.7957 182.319 44.5509 182.319 44.2956V1.60492C182.319 1.34961 182.233 1.10484 182.08 0.924317C181.927 0.743789 181.719 0.642245 181.503 0.641966H123.018Z" fill="#3F3D56"/>
<path d="M169.942 14.2575H134.579C134.255 14.2575 133.943 14.1053 133.714 13.8344C133.484 13.5636 133.355 13.1962 133.355 12.8131C133.355 12.43 133.484 12.0626 133.714 11.7917C133.943 11.5208 134.255 11.3687 134.579 11.3687H169.942C170.267 11.3687 170.578 11.5208 170.808 11.7917C171.037 12.0626 171.166 12.43 171.166 12.8131C171.166 13.1962 171.037 13.5636 170.808 13.8344C170.578 14.1053 170.267 14.2575 169.942 14.2575Z" fill="#CCCCCC"/>
<path d="M169.942 24.2077H134.579C134.255 24.2077 133.943 24.0555 133.714 23.7846C133.484 23.5138 133.355 23.1464 133.355 22.7633C133.355 22.3802 133.484 22.0128 133.714 21.7419C133.943 21.471 134.255 21.3188 134.579 21.3188H169.942C170.267 21.3188 170.578 21.471 170.808 21.7419C171.037 22.0128 171.166 22.3802 171.166 22.7633C171.166 23.1464 171.037 23.5138 170.808 23.7846C170.578 24.0555 170.267 24.2077 169.942 24.2077Z" fill="#CCCCCC"/>
<path d="M166.792 39.9851C169.208 39.9851 171.166 37.674 171.166 34.8231C171.166 31.9722 169.208 29.6611 166.792 29.6611C164.376 29.6611 162.417 31.9722 162.417 34.8231C162.417 37.674 164.376 39.9851 166.792 39.9851Z" fill="#6C63FF"/>
<path d="M166.912 32.3907V31.8989H167.035V32.3907C167.21 32.3997 167.381 32.4491 167.54 32.5363C167.655 32.6 167.754 32.6976 167.828 32.8195C167.896 32.9323 167.932 33.0675 167.932 33.2061C167.934 33.3073 167.906 33.4063 167.851 33.4843C167.827 33.5199 167.797 33.5486 167.763 33.5682C167.728 33.5879 167.69 33.5979 167.652 33.5976C167.624 33.5982 167.595 33.592 167.569 33.5792C167.542 33.5664 167.519 33.5473 167.499 33.5232C167.478 33.4991 167.462 33.4704 167.451 33.4387C167.44 33.4069 167.435 33.3729 167.436 33.3387C167.436 33.2909 167.444 33.2435 167.46 33.1996L167.51 33.0767C167.527 33.0253 167.535 32.9702 167.534 32.9149C167.536 32.8292 167.512 32.7454 167.469 32.6771C167.42 32.6056 167.356 32.5521 167.282 32.5234C167.202 32.4924 167.119 32.4729 167.035 32.4651V34.2349L167.063 34.2544C167.32 34.4153 167.555 34.624 167.756 34.8723C167.846 34.9971 167.917 35.1388 167.966 35.2914C168.015 35.4393 168.041 35.5967 168.042 35.7556C168.044 35.9614 167.998 36.1639 167.91 36.3413C167.824 36.5144 167.697 36.6548 167.545 36.7457C167.385 36.8383 167.213 36.8975 167.035 36.9204V37.4478H166.912V36.9301C166.733 36.9284 166.556 36.8856 166.391 36.8039C166.226 36.7317 166.081 36.6088 165.97 36.448C165.872 36.3039 165.82 36.1246 165.821 35.9401C165.817 35.8105 165.851 35.6833 165.917 35.5793C165.942 35.5344 165.977 35.4976 166.018 35.472C166.058 35.4463 166.104 35.4327 166.15 35.4321C166.177 35.4309 166.205 35.4365 166.23 35.4484C166.256 35.4603 166.279 35.4784 166.299 35.5014C166.318 35.5244 166.334 35.5519 166.344 35.5822C166.354 35.6125 166.359 35.6449 166.358 35.6775C166.349 35.7771 166.313 35.8707 166.257 35.9454C166.227 35.9916 166.202 36.0414 166.181 36.0939C166.167 36.1349 166.16 36.1788 166.161 36.223C166.161 36.341 166.195 36.4553 166.258 36.5474C166.326 36.6505 166.417 36.7302 166.52 36.7782C166.638 36.8324 166.763 36.8588 166.89 36.8557H166.912V34.7429L166.756 34.6362C166.607 34.5348 166.495 34.4507 166.417 34.3838C166.341 34.3188 166.271 34.2451 166.207 34.1638C166.05 33.9658 165.962 33.7041 165.963 33.4325C165.962 33.2635 165.998 33.097 166.067 32.9489C166.135 32.8011 166.234 32.6767 166.355 32.5881C166.524 32.4682 166.715 32.4003 166.912 32.3907ZM166.912 32.4619C166.806 32.4658 166.701 32.4932 166.603 32.5427C166.506 32.5997 166.426 32.6911 166.374 32.8042C166.315 32.9273 166.285 33.0666 166.287 33.2078C166.286 33.3802 166.33 33.5485 166.415 33.689C166.46 33.7655 166.513 33.834 166.575 33.8925C166.674 33.9797 166.777 34.0595 166.885 34.1314L166.912 34.1509V32.4619ZM167.035 36.8492C167.106 36.8423 167.176 36.8249 167.243 36.7975C167.297 36.7726 167.348 36.7377 167.393 36.6939C167.477 36.6089 167.543 36.5006 167.584 36.3785C167.632 36.2438 167.656 36.099 167.655 35.953C167.644 35.7186 167.581 35.4918 167.472 35.2952C167.363 35.0987 167.213 34.9395 167.035 34.8335V36.8492Z" fill="white"/>
<path d="M120.276 193H1.22482C1.14195 193 1.06247 192.961 1.00387 192.892C0.945274 192.823 0.912354 192.729 0.912354 192.631C0.912354 192.534 0.945274 192.44 1.00387 192.371C1.06247 192.302 1.14195 192.263 1.22482 192.263H120.276C120.359 192.263 120.439 192.302 120.497 192.371C120.556 192.44 120.589 192.534 120.589 192.631C120.589 192.729 120.556 192.823 120.497 192.892C120.439 192.961 120.359 193 120.276 193Z" fill="#1A1919"/>
</g>
<defs>
<clipPath id="clip0_62_89">
<rect width="262.412" height="193" fill="white" transform="translate(0.912354)"/>
</clipPath>
</defs>
</svg>
