<svg width="243" height="227" viewBox="0 0 243 227" fill="none" xmlns="http://www.w3.org/2000/svg">
<g clip-path="url(#clip0_32_70)">
<path d="M114.449 98.5562C113.223 95.8735 113.684 93.0648 115.479 92.283C117.274 91.5011 119.723 93.0422 120.949 95.726C121.455 96.7914 121.684 97.9624 121.619 99.141L126.664 110.574L120.974 112.835L116.605 101.325C115.663 100.585 114.924 99.6354 114.449 98.5562Z" fill="#FFAFAF"/>
<path d="M149.311 103.411C152.387 106.283 152.194 111.183 148.903 113.81L132.784 126.673C131.024 128.076 128.414 127.58 127.304 125.631C123.068 118.839 122.269 118.467 119.807 111.506L126.75 109.101L130.665 113.955L139.212 103.97C141.795 100.952 146.405 100.697 149.311 103.411Z" fill="#6C63FF"/>
<path d="M87.0766 86.0428V80.9814H36.4369V86.0428H87.0766Z" fill="#DFDFDF"/>
<path d="M215.302 86.0428V80.9814H164.662V86.0428H215.302Z" fill="#DFDFDF"/>
<path d="M64.4894 63.5H55.8317C52.4741 63.5 49.7521 66.1958 49.7521 69.5212V101.187C49.7521 104.512 52.4741 107.208 55.8317 107.208H64.4894C67.8471 107.208 70.5691 104.512 70.5691 101.187V69.5212C70.5691 66.1958 67.8471 63.5 64.4894 63.5Z" fill="#3F3D56"/>
<path d="M201.049 63.5H192.391C189.033 63.5 186.311 66.1958 186.311 69.5212V101.187C186.311 104.512 189.033 107.208 192.391 107.208H201.049C204.406 107.208 207.128 104.512 207.128 101.187V69.5212C207.128 66.1958 204.406 63.5 201.049 63.5Z" fill="#3F3D56"/>
<path d="M195.561 96.4875H63.3405C58.7437 96.4875 54.8103 93.2363 53.988 88.7574L48.9316 61.214C46.7326 49.2356 51.2889 37.0317 60.8248 29.3522L70.7952 8.10667C73.1064 3.18194 78.1428 0 83.626 0H158.106C162.066 0 165.87 1.65902 168.544 4.55185L186.864 24.3768C200.268 33.3222 207.872 48.7934 206.712 64.7607L205.042 87.7487C204.686 92.6488 200.522 96.4875 195.561 96.4875Z" fill="#88A1C8"/>
<path d="M172.996 27.4205H73.1014C71.3666 27.4205 69.7657 26.5608 68.819 25.1212C67.8724 23.6812 67.7261 21.8833 68.4279 20.312L73.6932 8.5221C74.4946 6.72777 76.292 5.54511 78.2721 5.50928L163.429 5.61196C165.051 5.60149 166.599 6.32429 167.582 7.59634L177.054 19.2836C178.244 20.8242 178.445 22.8614 177.578 24.6009C176.71 26.3401 174.954 27.4205 172.996 27.4205Z" fill="white"/>
<path d="M187.977 58.5522C192.805 58.5522 196.72 54.6753 196.72 49.893C196.72 45.1107 192.805 41.2339 187.977 41.2339C183.148 41.2339 179.234 45.1107 179.234 49.893C179.234 54.6753 183.148 58.5522 187.977 58.5522Z" fill="white"/>
<path d="M73.0671 58.5522C77.8958 58.5522 81.8102 54.6753 81.8102 49.893C81.8102 45.1107 77.8958 41.2339 73.0671 41.2339C68.2384 41.2339 64.324 45.1107 64.324 49.893C64.324 54.6753 68.2384 58.5522 73.0671 58.5522Z" fill="white"/>
<path d="M179.442 82.2614H84.1001V82.0552C84.1001 77.1668 88.1156 73.1899 93.0514 73.1899H170.49C175.426 73.1899 179.442 77.1668 179.442 82.0552V82.2614Z" fill="#3F3D56"/>
<path d="M62.226 31.1676C61.71 31.1676 61.1931 31.0049 60.7591 30.6763L57.2683 28.0331C56.9216 27.7706 56.4904 27.626 56.0538 27.626H48.4305C47.5583 27.626 46.7766 27.1799 46.3397 26.4321C45.9027 25.6847 45.9011 24.7912 46.3353 24.0422L48.1963 20.8313C48.568 20.1898 49.2319 19.7485 49.9723 19.6506L59.51 18.3911C60.6988 18.2348 61.8055 18.9464 62.1457 20.0835L64.5428 28.096C64.8068 28.9782 64.53 29.9446 63.8376 30.5587C63.3813 30.963 62.8044 31.1676 62.226 31.1676Z" fill="#88A1C8"/>
<path d="M185.911 29.5186C185.333 29.5186 184.756 29.314 184.3 28.9098C183.607 28.2957 183.331 27.3293 183.594 26.447L185.991 18.4346C186.332 17.2966 187.44 16.5826 188.627 16.7425L198.165 18.0017C198.905 18.0995 199.569 18.5409 199.941 19.1823L201.802 22.3933C202.236 23.1422 202.235 24.0358 201.798 24.7831C201.361 25.5309 200.579 25.9771 199.707 25.9771H192.083C191.647 25.9771 191.216 26.1216 190.869 26.3842L187.378 29.0273C186.944 29.3559 186.427 29.5186 185.911 29.5186Z" fill="#88A1C8"/>
<path d="M41.5474 15.644H36.437V223.159H41.5474V15.644Z" fill="#DFDFDF"/>
<path d="M218.089 15.644H212.979V223.159H218.089V15.644Z" fill="#DFDFDF"/>
<path d="M0 223.361C0 223.518 0.127905 223.645 0.287183 223.645H242.713C242.872 223.645 243 223.518 243 223.361C243 223.203 242.872 223.076 242.713 223.076H0.287183C0.127905 223.076 0 223.203 0 223.361Z" fill="#3F3D56"/>
<path d="M160.068 207.664V217.063L167.244 217.292L166.945 207.664H160.068Z" fill="#FFAFAF"/>
<path d="M158.648 212.894C158.551 212.894 158.456 212.906 158.364 212.932C157.069 213.298 149.572 219.927 147.306 221.95C147.026 222.199 146.877 222.556 146.898 222.929C146.918 223.299 147.104 223.636 147.408 223.853C149.127 225.079 152.649 227.019 156.922 226.235C158.888 225.874 160.871 225.648 162.621 225.448C166.368 225.019 169.327 224.681 169.327 223.367C169.327 221.139 168.708 215.265 167.931 215.018C167.861 214.997 167.779 215.051 167.685 215.181C166.497 216.828 162.415 215.952 162.242 215.914L162.196 215.904L162.171 215.866C162.149 215.834 160.151 212.894 158.648 212.894Z" fill="#2F2E41"/>
<path d="M146.642 207.664V217.063L153.818 217.292L153.519 207.664H146.642Z" fill="#FFAFAF"/>
<path d="M143.749 140.378L139.929 143.243L139.235 175.568L145.716 210.873L154.165 211.217L154.397 177.517L165.276 146.797L163.077 139.575L143.749 140.378Z" fill="#2F2E41"/>
<path d="M161.573 145.879L165.276 146.796L167.938 210.873L158.332 210.071L151.966 164.793L161.573 145.879Z" fill="#2F2E41"/>
<path d="M141.519 226.644C138.226 226.644 135.551 225.202 134.122 224.23C133.69 223.937 133.423 223.47 133.389 222.951C133.354 222.427 133.56 221.926 133.954 221.575C137.501 218.415 143.636 213.062 144.874 212.711C146.48 212.256 148.634 215.296 148.911 215.699C149.359 215.79 153.034 216.486 154.071 215.047C154.269 214.773 154.454 214.761 154.576 214.8C155.684 215.151 156.133 222.216 156.133 223.367C156.133 224.885 153.234 225.217 149.222 225.675C147.476 225.875 145.496 226.101 143.538 226.46C142.844 226.588 142.17 226.644 141.519 226.644Z" fill="#2F2E41"/>
<path d="M151.685 98.5093L154.322 103.77L144.357 108.536L144.479 100.103L151.685 98.5093Z" fill="#FFAFAF"/>
<path d="M144.393 102.488C149.345 102.488 153.359 98.5125 153.359 93.608C153.359 88.7035 149.345 84.7275 144.393 84.7275C139.44 84.7275 135.426 88.7035 135.426 93.608C135.426 98.5125 139.44 102.488 144.393 102.488Z" fill="#FFAFAF"/>
<path d="M144.332 106.486L153.526 101.105C160.269 105.789 165.884 106.884 166.063 115.039L164.82 134.492L164.893 142.87C164.924 146.387 162.053 149.255 158.502 149.255H145.374C141.899 149.255 139.311 146.08 140.042 142.716L142.521 131.319L139.874 109.107L144.332 106.486Z" fill="#6C63FF"/>
<path d="M153.613 98.0765L151.955 99.2527C151.955 99.2527 151.468 94.1261 150.795 93.8986C150.121 93.6711 149.213 94.8527 149.213 94.8527L148.55 96.7773L146.357 95.872C146.357 95.872 143.818 94.5176 142.921 94.2142C142.023 93.9109 142.159 91.3354 142.159 91.3354C142.159 91.3354 131.386 92.7962 133.004 86.645C133.004 86.645 133.562 82.1198 134.755 83.0192C135.948 83.9186 135.964 81.6913 135.964 81.6913L138.667 81.1164C138.667 81.1164 142.376 76.1679 149.692 80.3776C157.009 84.5872 153.613 98.0765 153.613 98.0765Z" fill="#2F2E41"/>
<path d="M134.9 117.733L132.478 117.368C131.802 117.265 131.333 116.634 131.436 115.964L131.732 114.04C130.853 114.578 130.207 115.478 130.04 116.569C129.781 118.253 130.741 119.838 132.265 120.456L130.146 134.234C130.14 134.269 130.141 134.303 130.14 134.337C128.495 134.472 127.096 135.704 126.837 137.391C126.684 138.38 126.953 139.337 127.509 140.082L127.775 138.349C127.878 137.679 128.516 137.215 129.192 137.317L131.615 137.682C132.291 137.784 132.76 138.416 132.657 139.086L132.361 141.01C133.24 140.472 133.885 139.571 134.053 138.48C134.313 136.793 133.348 135.204 131.818 134.59C131.827 134.557 131.838 134.525 131.844 134.49L133.963 120.712C135.604 120.572 136.997 119.342 137.256 117.658C137.408 116.669 137.14 115.713 136.584 114.967L136.318 116.701C136.215 117.37 135.577 117.835 134.9 117.733Z" fill="#3F3D56"/>
<path d="M130.389 129.722C127.482 129.102 125.477 127.064 125.91 125.17C126.344 123.275 129.051 122.243 131.959 122.863C133.124 123.095 134.211 123.609 135.129 124.362L147.408 127.147L145.859 133.022L133.918 129.652C132.757 129.962 131.547 129.986 130.389 129.722Z" fill="#FFAFAF"/>
<path d="M155.068 104.856C159.229 104.117 163.091 107.185 163.265 111.368L164.115 131.852C164.207 134.088 162.252 135.871 160.01 135.595C151.977 134.927 152.542 135.742 145.427 133.561L145.904 126.073L152.533 125.974L149.513 113.229C148.601 109.377 151.136 105.555 155.068 104.856Z" fill="#6C63FF"/>
</g>
<defs>
<clipPath id="clip0_32_70">
<rect width="243" height="226.644" fill="white"/>
</clipPath>
</defs>
</svg>
